<svg height="34.664" viewBox="0 0 41.497 34.664" width="41.497" xmlns="http://www.w3.org/2000/svg"><path d="m128.6 19.891a18.272 18.272 0 0 0 -3.589-2.791.389.389 0 0 1 -.19-.288 12.266 12.266 0 0 1 -.122-2.679c-.011-1.839.006-3.678-.011-5.511a2.488 2.488 0 0 0 -2.431-2.462c-.083-.006-.166-.006-.249-.006q-6.927 0-13.847.006a6.573 6.573 0 0 1 -1.4-.241 49.584 49.584 0 0 1 -4.861-1.41c-.418-.135-.848-.229-1.269-.341h-.323a.873.873 0 0 0 .08.182c.439.546.884 1.093 1.328 1.639l.125.164h-7.521a2.517 2.517 0 0 0 -2.567 2.1 2.805 2.805 0 0 0 -.035.5v6.263a.28.28 0 0 1 -.178.3 4.558 4.558 0 0 0 -.566.329c.237-.011.477-.029.741-.047v.182 2.356a.269.269 0 0 1 -.133.258c-.341.235-.676.464-1 .705-.255.188-.495.382-.741.576v.07c.56.112 1.12.229 1.68.335.157.029.2.1.2.258q0 4.433 0 8.86 0 3.534 0 7.08a2.486 2.486 0 0 0 2.069 2.5 2.538 2.538 0 0 0 .516.047h27.8a2.49 2.49 0 0 0 2.584-2.485c.024-1.439.006-2.873.006-4.306v-5.346a2.455 2.455 0 0 1 1.467.817c.62.722 1.23 1.451 1.844 2.186.311.376.616.758.931 1.14.091.106.2.194.308.3.032-.041.053-.053.062-.076.5-1.075 1.029-2.127 1.506-3.22a7.891 7.891 0 0 0 .468-1.545 4.64 4.64 0 0 0 -.151-1.992 9.4 9.4 0 0 0 -2.531-4.407zm1.423 7.2a10.54 10.54 0 0 1 -.733 2.573c-.059-.129-.115-.258-.18-.382a15.866 15.866 0 0 0 -1.636-2.45 6.528 6.528 0 0 0 -2.052-1.645 32.946 32.946 0 0 0 -4.846-2.115.152.152 0 0 0 -.1-.006q1.569.846 3.141 1.692c-.009.017-.017.041-.026.059-.59-.158-1.189-.3-1.773-.482-.916-.27-.637-.141-2.739-.77-3.808-1.028-4.416-.347-4.416-.347a12.893 12.893 0 0 1 6.281 2.1c-.1.246-.184.488-.273.728-.136.364-.27.728-.415 1.092a.888.888 0 0 0 .009.67c.756 1.956 1.544 3.913 2.294 5.87a1.215 1.215 0 0 1 .074.341v3.366a.647.647 0 0 1 -.035.206c0 .006-.009.012-.012.018a1.5 1.5 0 0 1 -1.26.476c-6.147-.018-12.294-.006-18.438-.006q-4.406 0-8.809-.006a2.778 2.778 0 0 1 -.445-.03 1.319 1.319 0 0 1 -1.138-1.363c-.015-.329 0-.658 0-.993a.307.307 0 0 1 .038-.129 42.567 42.567 0 0 0 1.924-4.512c.044-.117.089-.229.125-.352a9.86 9.86 0 0 1 -2.051 2.474l-.065-.018c.033-.482.039-.969.107-1.451.267-1.9.551-3.8.83-5.693a.524.524 0 0 0 -.018-.07c-.29.952-.575 1.874-.857 2.791h-.033v-.271c0-1.768 0-3.531 0-5.3a.734.734 0 0 1 .071-.318c.4-.881.818-1.757 1.227-2.632a.337.337 0 0 0 -.225-.517c-.415-.088-.83-.159-1.245-.223-.267-.047-.534-.071-.848-.106.1-.065.166-.105.231-.153a27.2 27.2 0 0 0 5.572-4.859c.083-.094.24-.188.154-.347s-.255-.123-.388-.094q-.792.168-1.577.37c-.252.059-.5.147-.756.2l5.49-4.618-4.72-3.234c.006-.018.012-.029.018-.047 3.044.535 6.088 1.063 9.176 1.6-.949-1.016-1.864-2-2.81-3.008.077.018.119.024.154.035 3.127 1.034 6.248 2.074 9.378 3.09a31.974 31.974 0 0 1 8.423 4.054 10.788 10.788 0 0 1 2.733 2.6 4.545 4.545 0 0 1 .783 1.7.207.207 0 0 1 -.056.165 1.461 1.461 0 0 0 -.567.6 2.782 2.782 0 0 0 -.344 1.445c.012.282-.094.429-.385.429a2.827 2.827 0 0 1 -.705-.083c-.3-.076-.6-.188-.9-.288a1.375 1.375 0 0 1 -.146-.047 4.709 4.709 0 0 0 2.122.87 1.216 1.216 0 0 0 .973-.247.234.234 0 0 0 .077-.294.869.869 0 0 1 .243-.987.227.227 0 0 1 .32-.041 18.426 18.426 0 0 1 3.675 2.82 11.407 11.407 0 0 1 1.681 2.109 5.388 5.388 0 0 1 .699 3.988z" fill="#343434" transform="translate(-89.839 -4.168)"/></svg>