<svg height="35.941" viewBox="0 0 41.498 35.941" width="41.498" xmlns="http://www.w3.org/2000/svg"><path d="m223.938 22.446a.125.125 0 0 1 -.023-.023c-.792-.838-2.019-1.21-3.979-1.21a25.8 25.8 0 0 0 -2.593.149l.014-15.617a2.227 2.227 0 0 0 -2.234-2.215h-27.554a2.224 2.224 0 0 0 -2.232 2.215v27.307a2.222 2.222 0 0 0 2.232 2.215h7.4a7.186 7.186 0 0 0 .474.655c1.951 2.353 5.364 3.549 10.146 3.549a57.854 57.854 0 0 0 9.9-1.113l.913-.16c3.029-.521 4.68-1.182 5.711-2.269a2.261 2.261 0 0 0 1.241-.913.957.957 0 0 0 .041-.755 1.129 1.129 0 0 0 -.373-.484 3.861 3.861 0 0 0 .3-.492 1.914 1.914 0 0 0 .9-.776.932.932 0 0 0 .04-.756 1.219 1.219 0 0 0 -.528-.59c-.009-.155-.02-.306-.04-.455.054-.083.1-.166.153-.249a2.9 2.9 0 0 0 1.651-1.168 1.127 1.127 0 0 0 .047-.916 1.9 1.9 0 0 0 -1.3-1.013.37.37 0 0 1 .1-.192c.125-.229.3-.467.448-.724a3.43 3.43 0 0 0 1.891-1.382 1.405 1.405 0 0 0 .058-1.125c-.391-1.039-1.842-1.379-2.804-1.493zm-.587 3.972-3.421.5 3.283.361a3.193 3.193 0 0 1 -.881 3.5s.015.035.038.092l-2.7.355 2.859.275a2.328 2.328 0 0 1 -.284 1.582l-2.249.65 1.822-.049c0 .352-.349 1.849-5.584 2.75-5.965 1.027-22.694 4.628-20.1-8.356s16.6-18.639 19.454-18.639v12.5c-1.547.243-2.918.509-4.126.776-1.336-.181-4.521-.535-6.184-.034l3.791.627a24.193 24.193 0 0 0 -4.894 1.752 79.782 79.782 0 0 1 10.5-2.1c3.52-.386 7.4-.137 8.18.684 1.322 1.403.898 2.325.496 2.774z" fill="#343434" transform="translate(-185.337 -3.53)"/></svg>