<svg height="43" viewBox="0 0 40.869 43" width="40.869" xmlns="http://www.w3.org/2000/svg"><path d="m321.619 11.655c-1.176.542-3.213 3.067-3.213 3.067a3.692 3.692 0 0 0 -.856-.118v-7.643a2.121 2.121 0 0 0 -2.135-2.107h-9.9a4.354 4.354 0 0 0 -.327-1.14s2.178-2.409 2.52-3.646c0 0-.074-.883-3.415 3.719v1.067h-15.21a2.121 2.121 0 0 0 -2.135 2.107v5.515l-1.625.632s-.181.639 1.625.32v7.572c-1.795 2.057-4.4 5.085-4.674 5.651-.425.868-.892 4.209-1.439 4.948 0 0 .943.485 2.2-4.788l3.909-3.916v10.059a2.121 2.121 0 0 0 2.135 2.107h14.834l-4.544 5.328c-5.2 1.73-4.626 2.611-4.626 2.611.693-.605 4.021-1.379 4.86-1.877.64-.377 4.443-4.264 6.187-6.062h7.311a.286.286 0 0 0 .345.139l.03-.139h1.935a2.121 2.121 0 0 0 2.135-2.107v-17.189l.93-.16c4.04-4.026 3.143-3.95 3.143-3.95zm-12.927-6.141c1.226-.06 1.8-.1 1.877.839a5.658 5.658 0 0 0 -3.157.477 1.358 1.358 0 0 1 1.28-1.316zm-17.023 22.52a6.553 6.553 0 0 1 -.523-.477c-.1-.22-.188-.435-.279-.65a3.806 3.806 0 0 1 -.493-1.308c-3.748-11 5.22-13.758 10.616-14.845a10.007 10.007 0 0 0 2.624 5.313l-.127-.1-9.5 14.29a17.69 17.69 0 0 1 -2.318-2.223zm5.2 4.288a29.35 29.35 0 0 1 -2.783-1.987l11.347-12.851a11.6 11.6 0 0 0 6.27 1.444s.011.183.026.079c-.005 5.365-.608 16.916-14.86 13.315zm15.551-14.214c-9.959.2-10.736-8.356-10.736-8.356a8.28 8.28 0 0 1 8.176 1.622c3.346 2.426 2.56 6.734 2.56 6.734zm1.248-5.072c-.43 1.473 1.168-.464-6.485-4.87l.085-.207a5.876 5.876 0 0 1 4.982.773 3.506 3.506 0 0 1 1.418 4.304zm1.322-.854a5.48 5.48 0 0 0 -.159-3.148c.954-.115 1.02.448 1.211 1.646a1.362 1.362 0 0 1 -1.052 1.502z" fill="#343434" transform="translate(-280.835)"/></svg>