<svg height="34.899" viewBox="0 0 35.839 34.899" width="35.839" xmlns="http://www.w3.org/2000/svg" xmlns:xlink="http://www.w3.org/1999/xlink"><clipPath id="a"><path d="m0 0h35.839v34.899h-35.839z"/></clipPath><g clip-path="url(#a)" fill="#343434"><path d="m408.793 20.656v-14.263a2.375 2.375 0 0 0 -2.4-2.343h-26.612a2.375 2.375 0 0 0 -2.4 2.343v25.907a2.377 2.377 0 0 0 2.4 2.343h4.249c.435.377.892.736 1.366 1.072a17.574 17.574 0 0 0 10.192 3.236 18.175 18.175 0 0 0 2.765-.212 13.65 13.65 0 0 0 7.873-4.1h.162a2.377 2.377 0 0 0 2.4-2.343v-1.52a12.878 12.878 0 0 0 .906-7.259 10.425 10.425 0 0 0 -.901-2.861zm-27.857 7.891 1.092.057-.607.9q-.26-.469-.485-.957zm5.221 6.194a.1.1 0 0 0 -.025-.014c-.382-.274-.747-.559-1.1-.858l1.385-.475zm5.361 2.47.914-1.032.474 1.327c-.468-.077-.931-.177-1.388-.294zm7.242.214.536-1.463.931 1.07a13.257 13.257 0 0 1 -1.467.394zm7.2-4.365-.984 1.007-.463-1.536 1.572.369c-.038.055-.077.11-.121.161zm.446-.583-2.618-.619.8 2.652a12.334 12.334 0 0 1 -3.864 2.342l-1.613-1.852-.92 2.522c-.011 0-.022 0-.033.006a16.153 16.153 0 0 1 -4.695.051l-.847-2.362-1.631 1.843a16.153 16.153 0 0 1 -4.374-2.03l.457-2.381-2.468.851a15.754 15.754 0 0 1 -2.9-3.515l1.218-1.819-2.213-.119a15.641 15.641 0 0 1 -1.037-3.58 20.127 20.127 0 0 1 7.132-18.76l1.332-.977h11.394l-3.454.977a16.168 16.168 0 0 0 -11.747 18.038 11.034 11.034 0 0 0 4.577 7.264 11.541 11.541 0 0 0 6.7 2.128 11.737 11.737 0 0 0 1.815-.137 7.9 7.9 0 0 0 6.529-7.2 5.261 5.261 0 0 0 -1.609-3.9 8.464 8.464 0 0 0 -5.857-2.174 9.087 9.087 0 0 0 -2.91.464 1.967 1.967 0 0 1 -.608.109.623.623 0 0 1 -.716-.529c-.159-.7.749-1.585 1.051-1.876.083-.081.161-.16.228-.233a7.742 7.742 0 0 1 3.864-1.773 9.859 9.859 0 0 1 7.2 1.683 9.313 9.313 0 0 1 3.87 6.146 11.748 11.748 0 0 1 -2.049 8.761z" transform="translate(-375.704 -4.051)"/><path d="m396.9 16.359a1.386 1.386 0 1 0 1.422 1.384 1.4 1.4 0 0 0 -1.422-1.384zm0 2.283a.9.9 0 1 1 .92-.9.91.91 0 0 1 -.92.9z" transform="translate(-375.704 -4.051)"/></g></svg>