<svg fill="none" height="30" viewBox="0 0 115 30" width="115" xmlns="http://www.w3.org/2000/svg" xmlns:xlink="http://www.w3.org/1999/xlink"><linearGradient id="a" gradientUnits="userSpaceOnUse" x1="29.593" x2=".085196" y1="15" y2="11.7602"><stop offset="0" stop-color="#8d65e9"/><stop offset=".483" stop-color="#5391e4"/><stop offset="1" stop-color="#6bcd94"/></linearGradient><clipPath id="b"><path d="m0 0h30v30h-30z"/></clipPath><g clip-path="url(#b)"><path d="m15 .406616h-.0008c-8.05947 0-14.59295 6.533484-14.59295 14.592984v.0008c0 8.0594 6.53348 14.5929 14.59295 14.5929h.0008c8.0595 0 14.593-6.5335 14.593-14.5929v-.0008c0-8.0595-6.5335-14.592984-14.593-14.592984z" fill="url(#a)"/><g fill="#fff"><path d="m12.8872 19.197.3205-.0651c.0897-.018.1705-.0665.2285-.1373s.0897-.1595.0897-.2511c0-.0915-.0317-.1802-.0897-.251s-.1388-.1193-.2285-.1373l-.3205-.0651c-.3951-.0802-.7578-.2749-1.0429-.56s-.4799-.6478-.5601-1.043l-.065-.3204c-.018-.0898-.0665-.1705-.1373-.2285-.0708-.0581-.1595-.0897-.2511-.0897-.0915 0-.1802.0316-.251.0897-.0708.058-.1193.1387-.1373.2285l-.0651.3204c-.0802.3952-.2749.7579-.56003 1.043-.28509.2851-.64784.4798-1.04297.56l-.32043.0651c-.08975.018-.1705.0665-.22852.1373-.05801.0708-.08971.1595-.08971.251 0 .0916.0317.1803.08971.2511.05802.0708.13877.1193.22852.1373l.32043.0651c.39513.0801.75788.2749 1.04297.56.28513.2851.47983.6478.56003 1.0429l.0651.3205c.018.0897.0665.1705.1373.2285s.1595.0897.251.0897c.0916 0 .1803-.0317.2511-.0897s.1193-.1388.1373-.2285l.065-.3205c.0802-.3951.275-.7578.5601-1.0429s.6478-.4799 1.0429-.56z"/><path d="m20.654 13.3941 1.1793-.2391c.1177-.0241.2235-.0881.2994-.1811.076-.0931.1175-.2096.1175-.3297s-.0415-.2366-.1175-.3296c-.0759-.0931-.1817-.1571-.2994-.1811l-1.1793-.2391c-.5681-.1153-1.0897-.3954-1.4996-.8053s-.69-.9315-.8053-1.49962l-.2391-1.17928c-.0236-.11792-.0874-.22402-.1804-.30025-.0931-.07623-.2096-.11788-.3299-.11788s-.2368.04165-.3299.11788c-.093.07623-.1568.18233-.1804.30025l-.2392 1.17928c-.1151.56812-.3952 1.08982-.8051 1.49972s-.9316.69-1.4997.8052l-1.1793.2391c-.1177.024-.2235.088-.2994.1811-.076.093-.1175.2095-.1175.3296s.0415.2366.1175.3297c.0759.093.1817.157.2994.1811l1.1793.2391c.5681.1152 1.0898.3952 1.4997.8051.4099.41.69.9316.8051 1.4998l.2392 1.1792c.0236.118.0874.224.1804.3003.0931.0762.2096.1179.3299.1179s.2368-.0417.3299-.1179c.093-.0763.1568-.1823.1804-.3003l.2391-1.1792c.1153-.5682.3954-1.0897.8053-1.4996.4099-.41.9315-.69 1.4996-.8053z"/></g></g><g fill="#000"><path d="m38.0498 22v-11.13h3.045v1.596c.252-.49.644-.924 1.176-1.302s1.19-.567 1.974-.567c.882 0 1.561.168 2.037.504.49.336.847.791 1.071 1.365.28-.532.714-.973 1.302-1.323.588-.364 1.281-.546 2.079-.546 1.204 0 2.121.343 2.751 1.029.63.672.945 1.68.945 3.024v7.35h-3.234v-6.552c0-.784-.126-1.337-.378-1.659-.238-.336-.63-.504-1.176-.504-.322 0-.623.091-.903.273-.266.168-.483.413-.651.735-.154.322-.231.707-.231 1.155v6.552h-3.234v-6.552c0-.784-.126-1.337-.378-1.659-.238-.336-.637-.504-1.197-.504-.322 0-.616.091-.882.273-.266.168-.483.413-.651.735-.154.322-.231.707-.231 1.155v6.552z"/><path d="m59.2598 22.273c-.798 0-1.484-.154-2.058-.462-.56-.308-.987-.728-1.281-1.26-.294-.546-.441-1.148-.441-1.806 0-1.106.336-1.953 1.008-2.541.686-.588 1.715-.882 3.087-.882h3.15v-.462c0-.672-.161-1.134-.483-1.386-.308-.252-.742-.378-1.302-.378-.532 0-.924.084-1.176.252-.252.154-.392.413-.42.777h-3.234c.042-.672.252-1.274.63-1.806.392-.532.945-.952 1.659-1.26.728-.308 1.61-.462 2.646-.462.98 0 1.841.147 2.583.441s1.316.77 1.722 1.428c.42.644.63 1.512.63 2.604v4.095c0 .588.014 1.106.042 1.554.028.434.07.861.126 1.281h-3.087c-.014-.238-.035-.448-.063-.63-.014-.182-.021-.406-.021-.672-.336.448-.805.826-1.407 1.134-.588.294-1.358.441-2.31.441zm1.05-2.289c.462 0 .875-.084 1.239-.252s.651-.42.861-.756c.21-.35.315-.742.315-1.176v-.462h-2.52c-.476 0-.833.126-1.071.378-.224.252-.336.539-.336.861 0 .42.112.763.336 1.029.238.252.63.378 1.176.378z"/><path d="m72.3864 26.473c-1.204 0-2.17-.14-2.898-.42-.714-.28-1.239-.693-1.575-1.239-.322-.532-.511-1.155-.567-1.869h3.297c.07.252.224.49.462.714.252.224.679.336 1.281.336.84 0 1.47-.196 1.89-.588.434-.378.651-.987.651-1.827v-1.197c-.378.546-.854.966-1.428 1.26-.56.28-1.155.42-1.785.42-.966 0-1.813-.21-2.541-.63-.714-.42-1.267-1.043-1.659-1.869s-.588-1.869-.588-3.129v-.42c0-1.176.189-2.163.567-2.961.392-.812.945-1.421 1.659-1.827.728-.42 1.582-.63 2.562-.63.868 0 1.589.189 2.163.567.588.364 1.022.77 1.302 1.218v-1.512h2.982v10.395c0 1.736-.469 3.038-1.407 3.906-.924.868-2.38 1.302-4.368 1.302zm.105-7.077c.462 0 .875-.105 1.239-.315s.651-.511.861-.903c.224-.406.336-.882.336-1.428v-1.05c0-.532-.112-.973-.336-1.323-.21-.364-.497-.637-.861-.819-.364-.196-.777-.294-1.239-.294-.658 0-1.197.231-1.617.693-.42.448-.63 1.134-.63 2.058v.42c0 .966.21 1.701.63 2.205.434.504.973.756 1.617.756z"/><path d="m79.8464 22v-11.13h3.234v11.13zm1.617-12.18004c-.602 0-1.071-.154-1.407-.462-.322-.322-.483-.728-.483-1.218s.161-.889.483-1.197c.336-.322.805-.483 1.407-.483s1.064.161 1.386.483c.336.308.504.707.504 1.197s-.168.896-.504 1.218c-.322.308-.784.462-1.386.462z"/><path d="m90.0191 22.273c-1.092 0-2.065-.21-2.919-.63s-1.526-1.057-2.016-1.911-.735-1.918-.735-3.192v-.42c0-1.176.252-2.177.756-3.003.518-.826 1.204-1.449 2.058-1.869.868-.434 1.82-.651 2.856-.651 1.12 0 2.058.196 2.814.588.756.378 1.337.889 1.743 1.533s.637 1.358.693 2.142h-3.339c-.098-.504-.301-.889-.609-1.155-.294-.28-.728-.42-1.302-.42-.448 0-.854.105-1.218.315-.35.21-.63.525-.84.945-.196.406-.294.931-.294 1.575v.42c0 .686.098 1.253.294 1.701s.469.784.819 1.008c.35.21.763.315 1.239.315.49 0 .903-.126 1.239-.378.35-.266.574-.658.672-1.176h3.339c-.056.868-.308 1.624-.756 2.268s-1.057 1.141-1.827 1.491c-.756.336-1.645.504-2.667.504z"/><path d="m95.3572 22 5.3758-14.70004h3.78l5.355 14.70004h-3.99l-1.008-2.814h-4.9138l-1.008 2.814zm5.6698-5.712h2.772l-1.386-4.368z"/><path d="m111.127 22v-14.70004h3.78v14.70004z"/></g></svg>