<svg fill="none" height="30" viewBox="0 0 30 30" width="30" xmlns="http://www.w3.org/2000/svg" xmlns:xlink="http://www.w3.org/1999/xlink"><linearGradient id="a" gradientUnits="userSpaceOnUse" x1="29.593" x2=".085196" y1="15.0001" y2="11.7604"><stop offset="0" stop-color="#8d65e9"/><stop offset=".483" stop-color="#5391e4"/><stop offset="1" stop-color="#6bcd94"/></linearGradient><clipPath id="b"><path d="m0 0h30v30h-30z"/></clipPath><g clip-path="url(#b)"><path d="m15 .406738h-.0008c-8.05947 0-14.59295 6.533482-14.59295 14.592962v.0008c0 8.0595 6.53348 14.5929 14.59295 14.5929h.0008c8.0595 0 14.593-6.5334 14.593-14.5929v-.0008c0-8.05948-6.5335-14.592962-14.593-14.592962z" fill="url(#a)"/><g fill="#fff"><path d="m12.8872 19.1971.3205-.0651c.0897-.018.1705-.0665.2285-.1373s.0897-.1595.0897-.2511c0-.0915-.0317-.1802-.0897-.251s-.1388-.1193-.2285-.1373l-.3205-.0651c-.3951-.0801-.7578-.2749-1.0429-.56s-.4799-.6478-.5601-1.043l-.065-.3204c-.018-.0897-.0665-.1705-.1373-.2285s-.1595-.0897-.2511-.0897c-.0915 0-.1802.0317-.251.0897s-.1193.1388-.1373.2285l-.0651.3204c-.0802.3952-.2749.7579-.56003 1.043-.28509.2851-.64784.4799-1.04297.56l-.32043.0651c-.08975.018-.1705.0665-.22852.1373-.05801.0708-.08971.1595-.08971.251 0 .0916.0317.1803.08971.2511.05802.0708.13877.1193.22852.1373l.32043.0651c.39513.0801.75788.2749 1.04297.56.28513.2851.47983.6478.56003 1.043l.0651.3204c.018.0898.0665.1705.1373.2285s.1595.0897.251.0897c.0916 0 .1803-.0317.2511-.0897s.1193-.1387.1373-.2285l.065-.3204c.0802-.3952.275-.7579.5601-1.043s.6478-.4799 1.0429-.56z"/><path d="m20.654 13.3942 1.1793-.2391c.1177-.0241.2235-.0881.2994-.1811.076-.0931.1175-.2095.1175-.3297 0-.1201-.0415-.2365-.1175-.3296-.0759-.0931-.1817-.157-.2994-.1811l-1.1793-.2391c-.5681-.1153-1.0897-.3954-1.4996-.8053s-.69-.9315-.8053-1.4996l-.2391-1.17927c-.0236-.11793-.0874-.22403-.1804-.30026-.0931-.07623-.2096-.11788-.3299-.11788s-.2368.04165-.3299.11788c-.093.07623-.1568.18233-.1804.30026l-.2392 1.17927c-.1151.5682-.3952 1.0898-.8051 1.4997s-.9316.69-1.4997.8052l-1.1793.2391c-.1177.0241-.2235.088-.2994.1811-.076.0931-.1175.2095-.1175.3296 0 .1202.0415.2366.1175.3297.0759.093.1817.157.2994.1811l1.1793.2391c.5681.1152 1.0898.3952 1.4997.8052.4099.4099.69.9315.8051 1.4997l.2392 1.1793c.0236.1179.0874.224.1804.3002.0931.0762.2096.1179.3299.1179s.2368-.0417.3299-.1179c.093-.0762.1568-.1823.1804-.3002l.2391-1.1793c.1153-.5681.3954-1.0897.8053-1.4996s.9315-.69 1.4996-.8053z"/></g></g></svg>