<svg fill="none" height="30" viewBox="0 0 115 30" width="115" xmlns="http://www.w3.org/2000/svg" xmlns:xlink="http://www.w3.org/1999/xlink"><linearGradient id="a" gradientUnits="userSpaceOnUse" x1="29.593" x2=".085196" y1="15.0001" y2="11.7604"><stop offset="0" stop-color="#8d65e9"/><stop offset=".483" stop-color="#5391e4"/><stop offset="1" stop-color="#6bcd94"/></linearGradient><clipPath id="b"><path d="m0 0h30v30h-30z"/></clipPath><g clip-path="url(#b)"><path d="m15 .406738h-.0008c-8.05947 0-14.59295 6.533482-14.59295 14.592962v.0008c0 8.0595 6.53348 14.5929 14.59295 14.5929h.0008c8.0595 0 14.593-6.5334 14.593-14.5929v-.0008c0-8.05948-6.5335-14.592962-14.593-14.592962z" fill="url(#a)"/><g fill="#fff"><path d="m12.8872 19.1971.3205-.0651c.0897-.018.1705-.0665.2285-.1373s.0897-.1595.0897-.2511c0-.0915-.0317-.1802-.0897-.251s-.1388-.1193-.2285-.1373l-.3205-.0651c-.3951-.0801-.7578-.2749-1.0429-.56s-.4799-.6478-.5601-1.043l-.065-.3204c-.018-.0897-.0665-.1705-.1373-.2285s-.1595-.0897-.2511-.0897c-.0915 0-.1802.0317-.251.0897s-.1193.1388-.1373.2285l-.0651.3204c-.0802.3952-.2749.7579-.56003 1.043-.28509.2851-.64784.4799-1.04297.56l-.32043.0651c-.08975.018-.1705.0665-.22852.1373-.05801.0708-.08971.1595-.08971.251 0 .0916.0317.1803.08971.2511.05802.0708.13877.1193.22852.1373l.32043.0651c.39513.0801.75788.2749 1.04297.56.28513.2851.47983.6478.56003 1.043l.0651.3204c.018.0898.0665.1705.1373.2285s.1595.0897.251.0897c.0916 0 .1803-.0317.2511-.0897s.1193-.1387.1373-.2285l.065-.3204c.0802-.3952.275-.7579.5601-1.043s.6478-.4799 1.0429-.56z"/><path d="m20.654 13.3942 1.1793-.2391c.1177-.0241.2235-.0881.2994-.1811.076-.0931.1175-.2095.1175-.3297 0-.1201-.0415-.2365-.1175-.3296-.0759-.0931-.1817-.157-.2994-.1811l-1.1793-.2391c-.5681-.1153-1.0897-.3954-1.4996-.8053s-.69-.9315-.8053-1.4996l-.2391-1.17927c-.0236-.11793-.0874-.22403-.1804-.30026-.0931-.07623-.2096-.11788-.3299-.11788s-.2368.04165-.3299.11788c-.093.07623-.1568.18233-.1804.30026l-.2392 1.17927c-.1151.5682-.3952 1.0898-.8051 1.4997s-.9316.69-1.4997.8052l-1.1793.2391c-.1177.0241-.2235.088-.2994.1811-.076.0931-.1175.2095-.1175.3296 0 .1202.0415.2366.1175.3297.0759.093.1817.157.2994.1811l1.1793.2391c.5681.1152 1.0898.3952 1.4997.8052.4099.4099.69.9315.8051 1.4997l.2392 1.1793c.0236.1179.0874.224.1804.3002.0931.0762.2096.1179.3299.1179s.2368-.0417.3299-.1179c.093-.0762.1568-.1823.1804-.3002l.2391-1.1793c.1153-.5681.3954-1.0897.8053-1.4996s.9315-.69 1.4996-.8053z"/></g></g><g fill="#fff"><path d="m41.0977 21v-9.54h2.16v1.422c.216-.42.564-.798 1.044-1.134.492-.336 1.056-.504 1.692-.504.768 0 1.368.156 1.8.468.444.312.756.726.936 1.242.264-.504.642-.912 1.134-1.224.504-.324 1.098-.486 1.782-.486 1.008 0 1.776.294 2.304.882.54.588.81 1.476.81 2.664v6.21h-2.376v-5.67c0-.756-.126-1.29-.378-1.602-.24-.312-.63-.468-1.17-.468-.312 0-.6.084-.864.252-.264.156-.48.39-.648.702-.156.312-.234.684-.234 1.116v5.67h-2.358v-5.67c0-.756-.126-1.29-.378-1.602-.24-.312-.63-.468-1.17-.468-.312 0-.606.084-.882.252-.264.156-.474.39-.63.702-.144.312-.216.684-.216 1.116v5.67z"/><path d="m59.1517 21.216c-.684 0-1.266-.126-1.746-.378-.48-.264-.846-.624-1.098-1.08s-.378-.972-.378-1.548c0-.96.282-1.68.846-2.16.576-.48 1.434-.72 2.574-.72h2.844v-.45c0-.624-.144-1.062-.432-1.314-.276-.252-.72-.378-1.332-.378-.54 0-.93.096-1.17.288-.24.18-.378.408-.414.684h-2.376c.036-.552.21-1.044.522-1.476.324-.444.78-.792 1.368-1.044.6-.264 1.32-.396 2.16-.396.816 0 1.524.12 2.124.36.612.24 1.086.63 1.422 1.17.336.528.504 1.242.504 2.142v3.654c0 .504.006.948.018 1.332.024.372.06.738.108 1.098h-2.214c-.048-.264-.078-.462-.09-.594 0-.144 0-.354 0-.63-.252.384-.648.72-1.188 1.008s-1.224.432-2.052.432zm.738-1.836c.384 0 .75-.066 1.098-.198.36-.144.648-.36.864-.648.228-.3.342-.678.342-1.134v-.45h-2.394c-.456 0-.816.108-1.08.324-.252.204-.378.486-.378.846 0 .384.132.69.396.918s.648.342 1.152.342z"/><path d="m70.2432 24.816c-1.008 0-1.812-.126-2.412-.378-.6-.24-1.044-.576-1.332-1.008-.276-.432-.438-.942-.486-1.53h2.412c.072.252.234.486.486.702.252.228.696.342 1.332.342.804 0 1.404-.192 1.8-.576s.594-.96.594-1.728v-1.152c-.3.468-.702.846-1.206 1.134-.504.276-1.08.414-1.728.414-.828 0-1.548-.18-2.16-.54-.6-.36-1.068-.894-1.404-1.602-.324-.72-.486-1.608-.486-2.664v-.36c0-.996.162-1.836.486-2.52.336-.684.81-1.206 1.422-1.566s1.326-.54 2.142-.54c.792 0 1.446.162 1.962.486s.894.702 1.134 1.134v-1.404h2.196v9c0 1.416-.39 2.496-1.17 3.24s-1.974 1.116-3.582 1.116zm.018-5.796c.48 0 .894-.084 1.242-.252.36-.18.636-.456.828-.828.204-.372.306-.822.306-1.35v-1.08c0-.504-.102-.918-.306-1.242s-.486-.57-.846-.738c-.36-.18-.768-.27-1.224-.27-.648 0-1.176.222-1.584.666-.408.432-.612 1.08-.612 1.944v.36c0 .924.21 1.62.63 2.088s.942.702 1.566.702z"/><path d="m76.8354 21v-9.54h2.358v9.54zm1.17-10.458c-.42 0-.768-.132-1.044-.396-.264-.264-.396-.606-.396-1.026s.132-.762.396-1.026c.276-.264.618-.396 1.026-.396.432 0 .78.132 1.044.396.276.264.414.606.414 1.026s-.138.762-.414 1.026c-.264.264-.606.396-1.026.396z"/><path d="m85.2141 21.216c-.876 0-1.668-.18-2.376-.54-.708-.372-1.272-.918-1.692-1.638-.408-.732-.612-1.638-.612-2.718v-.36c0-1.032.216-1.896.648-2.592s1.002-1.224 1.71-1.584 1.482-.54 2.322-.54c.9 0 1.662.15 2.286.45s1.104.714 1.44 1.242c.348.528.546 1.11.594 1.746h-2.412c-.096-.432-.294-.774-.594-1.026-.288-.264-.726-.396-1.314-.396-.408 0-.786.096-1.134.288-.336.192-.612.486-.828.882-.204.396-.306.906-.306 1.53v.36c0 .672.096 1.224.288 1.656.204.42.474.732.81.936.348.192.738.288 1.17.288.468 0 .87-.12 1.206-.36.348-.252.582-.606.702-1.062h2.412c-.072.684-.3 1.29-.684 1.818s-.894.93-1.53 1.206c-.624.276-1.326.414-2.106.414z"/><path d="m89.7043 21 4.68-12.6h2.682l4.6977 12.6h-2.8437l-.972-2.574h-4.662l-.954 2.574zm4.41-4.806h3.024l-1.512-4.374z"/><path d="m103.032 21v-12.6h2.682v12.6z"/></g></svg>