<svg xmlns="http://www.w3.org/2000/svg" xmlns:xlink="http://www.w3.org/1999/xlink" width="35.839" height="34.899" viewBox="0 0 35.839 34.899">
  <defs>
    <clipPath id="clip-path">
      <rect id="Rectangle_42355" data-name="Rectangle 42355" width="35.839" height="34.899" fill="#343434"/>
    </clipPath>
  </defs>
  <g id="_6c" data-name="6c" clip-path="url(#clip-path)">
    <path id="Path_143379" data-name="Path 143379" d="M408.793,20.656V6.393a2.375,2.375,0,0,0-2.4-2.343H379.781a2.375,2.375,0,0,0-2.4,2.343V32.3a2.377,2.377,0,0,0,2.4,2.343h4.249c.435.377.892.736,1.366,1.072a17.574,17.574,0,0,0,10.192,3.236,18.175,18.175,0,0,0,2.765-.212,13.65,13.65,0,0,0,7.873-4.1h.162a2.377,2.377,0,0,0,2.4-2.343v-1.52a12.878,12.878,0,0,0,.906-7.259A10.425,10.425,0,0,0,408.793,20.656Zm-27.857,7.891,1.092.057-.607.9Q381.161,29.035,380.936,28.547Zm5.221,6.194a.1.1,0,0,0-.025-.014c-.382-.274-.747-.559-1.1-.858l1.385-.475Zm5.361,2.47.914-1.032.474,1.327C392.438,37.429,391.975,37.329,391.518,37.212Zm7.242.214.536-1.463.931,1.07A13.257,13.257,0,0,1,398.76,37.426Zm7.2-4.365-.984,1.007-.463-1.536,1.572.369C406.047,32.955,406.008,33.01,405.964,33.061Zm.446-.583-2.618-.619.8,2.652a12.334,12.334,0,0,1-3.864,2.342L399.111,35l-.92,2.522c-.011,0-.022,0-.033.006a16.153,16.153,0,0,1-4.695.051l-.847-2.362-1.631,1.843a16.153,16.153,0,0,1-4.374-2.03l.457-2.381L384.6,33.5a15.754,15.754,0,0,1-2.9-3.515l1.218-1.819-2.213-.119a15.641,15.641,0,0,1-1.037-3.58A20.127,20.127,0,0,1,386.8,5.707l1.332-.977h11.394l-3.454.977a16.168,16.168,0,0,0-11.747,18.038,11.034,11.034,0,0,0,4.577,7.264,11.541,11.541,0,0,0,6.7,2.128A11.737,11.737,0,0,0,397.417,33a7.9,7.9,0,0,0,6.529-7.2,5.261,5.261,0,0,0-1.609-3.9,8.464,8.464,0,0,0-5.857-2.174,9.087,9.087,0,0,0-2.91.464,1.967,1.967,0,0,1-.608.109.623.623,0,0,1-.716-.529c-.159-.7.749-1.585,1.051-1.876.083-.081.161-.16.228-.233a7.742,7.742,0,0,1,3.864-1.773,9.859,9.859,0,0,1,7.2,1.683,9.313,9.313,0,0,1,3.87,6.146A11.748,11.748,0,0,1,406.41,32.478Z" transform="translate(-375.704 -4.051)" fill="#343434"/>
    <path id="Path_143380" data-name="Path 143380" d="M396.9,16.359a1.386,1.386,0,1,0,1.422,1.384A1.4,1.4,0,0,0,396.9,16.359Zm0,2.283a.9.9,0,1,1,.92-.9A.91.91,0,0,1,396.9,18.642Z" transform="translate(-375.704 -4.051)" fill="#343434"/>
  </g>
</svg>
