<?xml version="1.0" encoding="UTF-8"?>
<svg id="Camada_1" data-name="Camada 1" xmlns="http://www.w3.org/2000/svg" version="1.1" viewBox="0 0 125 55">
  <defs>
    <style>
      .cls-1 {
        fill: #564998;
      }

      .cls-1, .cls-2 {
        stroke-width: 0px;
      }

      .cls-2 {
        fill: #fff;
      }
    </style>
  </defs>
  <g>
    <g>
      <polygon class="cls-2" points="42.9 18.5 40.2 18.5 40.2 35.8 50.5 35.8 50.5 33.2 42.9 33.2 42.9 18.5"/>
      <path class="cls-2" d="M62.1,32.8v-5.2c0-1.5-.5-2.7-1.4-3.5-.9-.8-2.2-1.2-3.8-1.2s-2.8.4-3.7,1.1c-1,.7-1.6,1.7-1.7,3v.4s2.5,0,2.5,0v-.3c.2-.5.4-1,.9-1.3.5-.3,1.1-.5,1.9-.5s1.5.2,2,.6c.5.4.7.9.7,1.6v.5h-3.2c-1.6,0-2.9.4-3.8,1-.9.7-1.4,1.7-1.4,3.1s.5,2.1,1.3,2.8c.9.7,2,1,3.4,1s2.9-.5,3.9-1.6c.1.3.3.6.5.9.4.4,1,.6,1.9.6h1.4v-2.4h-.9c-.3,0-.5,0-.5-.6h0ZM56.1,30.2h3.4v.3c0,.9-.3,1.7-.9,2.2s-1.5.9-2.6.9-1.3-.2-1.7-.5c-.4-.3-.6-.7-.6-1.2,0-.7.2-1.7,2.4-1.7h0Z"/>
      <path class="cls-2" d="M76.1,25.9c-.5-1-1.3-1.7-2.2-2.3-.9-.5-2-.8-3.2-.8s-2.8.5-3.8,1.5v-5.9h-2.6v17.3h2.3l.2-1.4c.4.4.8.7,1.3,1,.7.4,1.6.6,2.7.6s2.2-.3,3.2-.8c.9-.5,1.7-1.3,2.2-2.3.5-1,.8-2.1.8-3.4s-.3-2.5-.8-3.5h0ZM68.7,25.7c.6-.3,1.2-.5,1.9-.5,1.1,0,2,.4,2.7,1.1s1,1.8,1,3-.3,2.2-1,3c-.7.8-1.5,1.1-2.7,1.1s-1.4-.2-1.9-.5-1-.8-1.3-1.5c-.3-.6-.5-1.4-.5-2.2s.2-1.5.5-2.1c.3-.6.7-1.1,1.3-1.4h0Z"/>
    </g>
    <polygon class="cls-2" points="78.7 37.6 83.6 37.6 83.6 35.3 81.2 35.3 81.2 19.7 83.6 19.7 83.6 17.4 78.7 17.4 78.7 37.6"/>
    <polygon class="cls-2" points="85.6 21.5 89.1 21.5 89.1 33.5 85.6 33.5 85.6 35.8 95.1 35.8 95.1 33.5 91.7 33.5 91.7 21.5 95.1 21.5 95.1 19.3 85.6 19.3 85.6 21.5"/>
    <path class="cls-2" d="M102.2,19.3l-5.8,16.5h2.7l1.5-4.3h6l1.5,4.3h2.8l-5.9-16.5h-2.9ZM105.8,29h-4.4l2.2-6.3,2.2,6.3h0Z"/>
    <polygon class="cls-2" points="116.7 17.4 111.8 17.4 111.8 19.7 114.2 19.7 114.2 35.3 111.8 35.3 111.8 37.6 116.7 37.6 116.7 17.4"/>
    <g>
      <path class="cls-2" d="M121.5,17.4v.5h-.8v2.4h-.6v-2.4h-.8v-.5h2.3Z"/>
      <path class="cls-2" d="M122.6,17.4l.8,2.1.8-2.1h.8v2.9h-.6v-1.9l-.7,1.9h-.5l-.7-1.9v1.9h-.6v-2.9h.8,0Z"/>
    </g>
  </g>
  <path class="cls-1" d="M28.4,19.3l-5.1-5.1c-1.1-1.1-2.7-1.8-4.3-1.8h-7.9c-1.6,0-3.1.6-4.3,1.8l-5.1,5.1c-1.1,1.1-1.8,2.7-1.8,4.3v7.9c0,1.6.6,3.1,1.8,4.3l5.1,5.1c1.1,1.1,2.7,1.8,4.3,1.8h7.9c1.6,0,3.1-.6,4.3-1.8l5.1-5.1c1.1-1.1,1.8-2.7,1.8-4.3v-7.9c0-1.6-.6-3.1-1.8-4.3h0ZM26.3,34.5c-.4.6-1.4.9-2.8.9s-1.8-.1-2.8-.3c.3-1.3.6-2.6.7-4,.9-.7,1.8-1.5,2.5-2.2.4.5.7.9,1.1,1.4,1.5,2.2,1.6,3.7,1.2,4.3h0ZM15.1,40.8c-.7,0-1.9-.9-3-3.3-.1-.3-.3-.7-.4-1.1,1.1-.4,2.3-.8,3.4-1.4,1.2.6,2.3,1,3.4,1.4-.1.4-.3.7-.4,1.1-1.1,2.5-2.3,3.3-3,3.3h0ZM3.8,34.5c-.4-.6-.3-2.1,1.2-4.3.3-.5.7-.9,1.1-1.4.8.8,1.6,1.5,2.5,2.2.1,1.4.4,2.8.7,4-1,.2-2,.3-2.8.3-1.4,0-2.4-.3-2.8-.9ZM3.8,20.5c.4-.6,1.4-.9,2.8-.9s1.8.1,2.8.3c-.3,1.2-.6,2.6-.7,4-.9.7-1.8,1.5-2.5,2.2-.4-.5-.7-.9-1.1-1.4-1.5-2.2-1.6-3.7-1.2-4.3ZM15.1,14.2c.7,0,1.9.9,3,3.3.1.3.3.7.4,1.1-1.1.4-2.3.8-3.4,1.4-1.2-.6-2.3-1-3.4-1.4.1-.4.3-.7.4-1.1,1.1-2.5,2.3-3.3,3-3.3h0ZM19.9,27.5c0,.9,0,1.8-.1,2.6-.7.5-1.4,1-2.1,1.5-.8.5-1.7,1-2.5,1.4-.9-.4-1.7-.9-2.5-1.4-.7-.5-1.5-1-2.1-1.5,0-.8-.1-1.7-.1-2.6s0-1.8.1-2.6c.7-.5,1.4-1,2.1-1.5.8-.5,1.7-1,2.5-1.4.9.4,1.7.9,2.5,1.4.7.5,1.5,1,2.1,1.5,0,.8.1,1.7.1,2.6ZM21.7,26.4c.4.4.8.7,1.1,1.1-.4.4-.7.7-1.1,1.1,0-.4,0-.7,0-1.1s0-.7,0-1.1ZM8.5,28.6c-.4-.4-.8-.7-1.1-1.1.4-.4.7-.7,1.1-1.1,0,.4,0,.7,0,1.1s0,.7,0,1.1ZM18.6,21.9c-.5-.3-1-.6-1.4-.8.5-.2,1-.4,1.4-.5.2,0,.3-.1.5-.1.2.7.3,1.4.4,2.1-.3-.2-.6-.4-.9-.6h0ZM11.6,20.5c.5.2,1,.3,1.4.5-.5.3-1,.5-1.4.8-.3.2-.6.4-.9.6.1-.7.3-1.4.4-2.1.1,0,.3,0,.5.1h0ZM10.7,32.5c.3.2.6.4.9.6.5.3,1,.6,1.4.8-.5.2-1,.4-1.4.5-.2,0-.3.1-.5.1-.2-.7-.3-1.4-.4-2.1h0ZM18.6,34.5c-.5-.2-1-.3-1.4-.5.5-.3,1-.5,1.4-.8.3-.2.6-.4.9-.6-.1.7-.3,1.4-.4,2.1-.1,0-.3,0-.5-.1h0ZM24,26.2c-.8-.8-1.6-1.5-2.5-2.2-.1-1.4-.4-2.8-.7-4,1-.2,2-.3,2.8-.3h0c1.4,0,2.4.3,2.8.9.4.6.3,2.1-1.2,4.3-.3.5-.7.9-1.1,1.4ZM22,15.5l2.3,2.3c-.2,0-.5,0-.8,0-1,0-2.1.1-3.3.4-.6-1.6-1.3-2.9-2-3.9h.8c1.1,0,2.2.4,3,1.2ZM8.1,15.5c.8-.8,1.9-1.2,3-1.2h.8c-.8,1-1.5,2.3-2,3.9-1.2-.3-2.3-.4-3.3-.4s-.5,0-.8,0l2.3-2.3h0ZM1.8,23.5c0-.4,0-.8.1-1.1.4,1.5,1.4,3.3,2.9,5.1-1.5,1.8-2.6,3.5-2.9,5.1,0-.4-.1-.7-.1-1.1v-7.9h0ZM8.1,39.5l-2.3-2.3c.2,0,.5,0,.8,0,1,0,2.1-.1,3.3-.4.6,1.6,1.2,2.9,2,3.9h-.8c-1.1,0-2.2-.4-3-1.2ZM22,39.5c-.8.8-1.9,1.2-3,1.2h-.8c.8-1,1.5-2.3,2-3.9,1.2.3,2.3.4,3.3.4s.5,0,.8,0l-2.3,2.3ZM28.4,31.5c0,.4,0,.8-.1,1.1-.4-1.5-1.4-3.3-2.9-5.1,1.5-1.8,2.6-3.5,2.9-5.1,0,.4.1.7.1,1.1v7.9Z"/>
</svg>