<svg width="115" height="30" viewBox="0 0 115 30" fill="none" xmlns="http://www.w3.org/2000/svg">
<g clip-path="url(#clip0_716_218)">
<path d="M15 0.406738H14.9992C6.93973 0.406738 0.40625 6.94022 0.40625 14.9997V15.0005C0.40625 23.06 6.93973 29.5934 14.9992 29.5934H15C23.0595 29.5934 29.593 23.06 29.593 15.0005V14.9997C29.593 6.94022 23.0595 0.406738 15 0.406738Z" fill="url(#paint0_linear_716_218)"/>
<path d="M12.8872 19.1971L13.2077 19.132C13.2974 19.114 13.3782 19.0655 13.4362 18.9947C13.4942 18.9239 13.5259 18.8352 13.5259 18.7436C13.5259 18.6521 13.4942 18.5634 13.4362 18.4926C13.3782 18.4218 13.2974 18.3733 13.2077 18.3553L12.8872 18.2902C12.4921 18.2101 12.1294 18.0153 11.8443 17.7302C11.5592 17.4451 11.3644 17.0824 11.2842 16.6872L11.2192 16.3668C11.2012 16.2771 11.1527 16.1963 11.0819 16.1383C11.0111 16.0803 10.9224 16.0486 10.8308 16.0486C10.7393 16.0486 10.6506 16.0803 10.5798 16.1383C10.509 16.1963 10.4605 16.2771 10.4425 16.3668L10.3774 16.6872C10.2972 17.0824 10.1025 17.4451 9.81737 17.7302C9.53228 18.0153 9.16953 18.2101 8.7744 18.2902L8.45397 18.3553C8.36422 18.3733 8.28347 18.4218 8.22545 18.4926C8.16744 18.5634 8.13574 18.6521 8.13574 18.7436C8.13574 18.8352 8.16744 18.9239 8.22545 18.9947C8.28347 19.0655 8.36422 19.114 8.45397 19.132L8.7744 19.1971C9.16953 19.2772 9.53228 19.472 9.81737 19.7571C10.1025 20.0422 10.2972 20.4049 10.3774 20.8001L10.4425 21.1205C10.4605 21.2103 10.509 21.291 10.5798 21.349C10.6506 21.407 10.7393 21.4387 10.8308 21.4387C10.9224 21.4387 11.0111 21.407 11.0819 21.349C11.1527 21.291 11.2012 21.2103 11.2192 21.1205L11.2842 20.8001C11.3644 20.4049 11.5592 20.0422 11.8443 19.7571C12.1294 19.472 12.4921 19.2772 12.8872 19.1971Z" fill="white"/>
<path d="M20.654 13.3942L21.8333 13.1551C21.951 13.131 22.0568 13.067 22.1327 12.974C22.2087 12.8809 22.2502 12.7645 22.2502 12.6443C22.2502 12.5242 22.2087 12.4078 22.1327 12.3147C22.0568 12.2216 21.951 12.1577 21.8333 12.1336L20.654 11.8945C20.0859 11.7792 19.5643 11.4991 19.1544 11.0892C18.7445 10.6793 18.4644 10.1577 18.3491 9.5896L18.11 8.41033C18.0864 8.2924 18.0226 8.1863 17.9296 8.11007C17.8365 8.03384 17.72 7.99219 17.5997 7.99219C17.4794 7.99219 17.3629 8.03384 17.2698 8.11007C17.1768 8.1863 17.113 8.2924 17.0894 8.41033L16.8502 9.5896C16.7351 10.1578 16.455 10.6794 16.0451 11.0893C15.6352 11.4992 15.1135 11.7793 14.5454 11.8945L13.3661 12.1336C13.2484 12.1577 13.1426 12.2216 13.0667 12.3147C12.9907 12.4078 12.9492 12.5242 12.9492 12.6443C12.9492 12.7645 12.9907 12.8809 13.0667 12.974C13.1426 13.067 13.2484 13.131 13.3661 13.1551L14.5454 13.3942C15.1135 13.5094 15.6352 13.7894 16.0451 14.1994C16.455 14.6093 16.7351 15.1309 16.8502 15.6991L17.0894 16.8784C17.113 16.9963 17.1768 17.1024 17.2698 17.1786C17.3629 17.2548 17.4794 17.2965 17.5997 17.2965C17.72 17.2965 17.8365 17.2548 17.9296 17.1786C18.0226 17.1024 18.0864 16.9963 18.11 16.8784L18.3491 15.6991C18.4644 15.131 18.7445 14.6094 19.1544 14.1995C19.5643 13.7896 20.0859 13.5095 20.654 13.3942Z" fill="white"/>
</g>
<path d="M41.0977 21V11.46H43.2577V12.882C43.4737 12.462 43.8217 12.084 44.3017 11.748C44.7937 11.412 45.3577 11.244 45.9937 11.244C46.7617 11.244 47.3617 11.4 47.7937 11.712C48.2377 12.024 48.5497 12.438 48.7297 12.954C48.9937 12.45 49.3717 12.042 49.8637 11.73C50.3677 11.406 50.9617 11.244 51.6457 11.244C52.6537 11.244 53.4217 11.538 53.9497 12.126C54.4897 12.714 54.7597 13.602 54.7597 14.79V21H52.3837V15.33C52.3837 14.574 52.2577 14.04 52.0057 13.728C51.7657 13.416 51.3757 13.26 50.8357 13.26C50.5237 13.26 50.2357 13.344 49.9717 13.512C49.7077 13.668 49.4917 13.902 49.3237 14.214C49.1677 14.526 49.0897 14.898 49.0897 15.33V21H46.7317V15.33C46.7317 14.574 46.6057 14.04 46.3537 13.728C46.1137 13.416 45.7237 13.26 45.1837 13.26C44.8717 13.26 44.5777 13.344 44.3017 13.512C44.0377 13.668 43.8277 13.902 43.6717 14.214C43.5277 14.526 43.4557 14.898 43.4557 15.33V21H41.0977Z" fill="white"/>
<path d="M59.1517 21.216C58.4677 21.216 57.8857 21.09 57.4057 20.838C56.9257 20.574 56.5597 20.214 56.3077 19.758C56.0557 19.302 55.9297 18.786 55.9297 18.21C55.9297 17.25 56.2117 16.53 56.7757 16.05C57.3517 15.57 58.2097 15.33 59.3497 15.33H62.1937V14.88C62.1937 14.256 62.0497 13.818 61.7617 13.566C61.4857 13.314 61.0417 13.188 60.4297 13.188C59.8897 13.188 59.4997 13.284 59.2597 13.476C59.0197 13.656 58.8817 13.884 58.8457 14.16H56.4697C56.5057 13.608 56.6797 13.116 56.9917 12.684C57.3157 12.24 57.7717 11.892 58.3597 11.64C58.9597 11.376 59.6797 11.244 60.5197 11.244C61.3357 11.244 62.0437 11.364 62.6437 11.604C63.2557 11.844 63.7297 12.234 64.0657 12.774C64.4017 13.302 64.5697 14.016 64.5697 14.916V18.57C64.5697 19.074 64.5757 19.518 64.5877 19.902C64.6117 20.274 64.6477 20.64 64.6957 21H62.4817C62.4337 20.736 62.4037 20.538 62.3917 20.406C62.3917 20.262 62.3917 20.052 62.3917 19.776C62.1397 20.16 61.7437 20.496 61.2037 20.784C60.6637 21.072 59.9797 21.216 59.1517 21.216ZM59.8897 19.38C60.2737 19.38 60.6397 19.314 60.9877 19.182C61.3477 19.038 61.6357 18.822 61.8517 18.534C62.0797 18.234 62.1937 17.856 62.1937 17.4V16.95H59.7997C59.3437 16.95 58.9837 17.058 58.7197 17.274C58.4677 17.478 58.3417 17.76 58.3417 18.12C58.3417 18.504 58.4737 18.81 58.7377 19.038C59.0017 19.266 59.3857 19.38 59.8897 19.38Z" fill="white"/>
<path d="M70.2432 24.816C69.2352 24.816 68.4312 24.69 67.8312 24.438C67.2312 24.198 66.7872 23.862 66.4992 23.43C66.2232 22.998 66.0612 22.488 66.0132 21.9H68.4252C68.4972 22.152 68.6592 22.386 68.9112 22.602C69.1632 22.83 69.6072 22.944 70.2432 22.944C71.0472 22.944 71.6472 22.752 72.0432 22.368C72.4392 21.984 72.6372 21.408 72.6372 20.64V19.488C72.3372 19.956 71.9352 20.334 71.4312 20.622C70.9272 20.898 70.3512 21.036 69.7032 21.036C68.8752 21.036 68.1552 20.856 67.5432 20.496C66.9432 20.136 66.4752 19.602 66.1392 18.894C65.8152 18.174 65.6532 17.286 65.6532 16.23V15.87C65.6532 14.874 65.8152 14.034 66.1392 13.35C66.4752 12.666 66.9492 12.144 67.5612 11.784C68.1732 11.424 68.8872 11.244 69.7032 11.244C70.4952 11.244 71.1492 11.406 71.6652 11.73C72.1812 12.054 72.5592 12.432 72.7992 12.864V11.46H74.9952V20.46C74.9952 21.876 74.6052 22.956 73.8252 23.7C73.0452 24.444 71.8512 24.816 70.2432 24.816ZM70.2612 19.02C70.7412 19.02 71.1552 18.936 71.5032 18.768C71.8632 18.588 72.1392 18.312 72.3312 17.94C72.5352 17.568 72.6372 17.118 72.6372 16.59V15.51C72.6372 15.006 72.5352 14.592 72.3312 14.268C72.1272 13.944 71.8452 13.698 71.4852 13.53C71.1252 13.35 70.7172 13.26 70.2612 13.26C69.6132 13.26 69.0852 13.482 68.6772 13.926C68.2692 14.358 68.0652 15.006 68.0652 15.87V16.23C68.0652 17.154 68.2752 17.85 68.6952 18.318C69.1152 18.786 69.6372 19.02 70.2612 19.02Z" fill="white"/>
<path d="M76.8354 21V11.46H79.1934V21H76.8354ZM78.0054 10.542C77.5854 10.542 77.2374 10.41 76.9614 10.146C76.6974 9.882 76.5654 9.54 76.5654 9.12C76.5654 8.7 76.6974 8.358 76.9614 8.094C77.2374 7.83 77.5794 7.698 77.9874 7.698C78.4194 7.698 78.7674 7.83 79.0314 8.094C79.3074 8.358 79.4454 8.7 79.4454 9.12C79.4454 9.54 79.3074 9.882 79.0314 10.146C78.7674 10.41 78.4254 10.542 78.0054 10.542Z" fill="white"/>
<path d="M85.2141 21.216C84.3381 21.216 83.5461 21.036 82.8381 20.676C82.1301 20.304 81.5661 19.758 81.1461 19.038C80.7381 18.306 80.5341 17.4 80.5341 16.32V15.96C80.5341 14.928 80.7501 14.064 81.1821 13.368C81.6141 12.672 82.1841 12.144 82.8921 11.784C83.6001 11.424 84.3741 11.244 85.2141 11.244C86.1141 11.244 86.8761 11.394 87.5001 11.694C88.1241 11.994 88.6041 12.408 88.9401 12.936C89.2881 13.464 89.4861 14.046 89.5341 14.682H87.1221C87.0261 14.25 86.8281 13.908 86.5281 13.656C86.2401 13.392 85.8021 13.26 85.2141 13.26C84.8061 13.26 84.4281 13.356 84.0801 13.548C83.7441 13.74 83.4681 14.034 83.2521 14.43C83.0481 14.826 82.9461 15.336 82.9461 15.96V16.32C82.9461 16.992 83.0421 17.544 83.2341 17.976C83.4381 18.396 83.7081 18.708 84.0441 18.912C84.3921 19.104 84.7821 19.2 85.2141 19.2C85.6821 19.2 86.0841 19.08 86.4201 18.84C86.7681 18.588 87.0021 18.234 87.1221 17.778H89.5341C89.4621 18.462 89.2341 19.068 88.8501 19.596C88.4661 20.124 87.9561 20.526 87.3201 20.802C86.6961 21.078 85.9941 21.216 85.2141 21.216Z" fill="white"/>
<path d="M89.7043 21L94.3843 8.4H97.0663L101.764 21H98.9203L97.9483 18.426H93.2863L92.3323 21H89.7043ZM94.1143 16.194H97.1383L95.6263 11.82L94.1143 16.194Z" fill="white"/>
<path d="M103.032 21V8.4H105.714V21H103.032Z" fill="white"/>
<defs>
<linearGradient id="paint0_linear_716_218" x1="29.593" y1="15.0001" x2="0.0851957" y2="11.7604" gradientUnits="userSpaceOnUse">
<stop stop-color="#8D65E9"/>
<stop offset="0.483" stop-color="#5391E4"/>
<stop offset="1" stop-color="#6BCD94"/>
</linearGradient>
<clipPath id="clip0_716_218">
<rect width="30" height="30" fill="white"/>
</clipPath>
</defs>
</svg>
