<svg width="30" height="30" viewBox="0 0 30 30" fill="none" xmlns="http://www.w3.org/2000/svg">
<g clip-path="url(#clip0_716_218)">
<path d="M15 0.406738H14.9992C6.93973 0.406738 0.40625 6.94022 0.40625 14.9997V15.0005C0.40625 23.06 6.93973 29.5934 14.9992 29.5934H15C23.0595 29.5934 29.593 23.06 29.593 15.0005V14.9997C29.593 6.94022 23.0595 0.406738 15 0.406738Z" fill="url(#paint0_linear_716_218)"/>
<path d="M12.8872 19.1971L13.2077 19.132C13.2974 19.114 13.3782 19.0655 13.4362 18.9947C13.4942 18.9239 13.5259 18.8352 13.5259 18.7436C13.5259 18.6521 13.4942 18.5634 13.4362 18.4926C13.3782 18.4218 13.2974 18.3733 13.2077 18.3553L12.8872 18.2902C12.4921 18.2101 12.1294 18.0153 11.8443 17.7302C11.5592 17.4451 11.3644 17.0824 11.2842 16.6872L11.2192 16.3668C11.2012 16.2771 11.1527 16.1963 11.0819 16.1383C11.0111 16.0803 10.9224 16.0486 10.8308 16.0486C10.7393 16.0486 10.6506 16.0803 10.5798 16.1383C10.509 16.1963 10.4605 16.2771 10.4425 16.3668L10.3774 16.6872C10.2972 17.0824 10.1025 17.4451 9.81737 17.7302C9.53228 18.0153 9.16953 18.2101 8.7744 18.2902L8.45397 18.3553C8.36422 18.3733 8.28347 18.4218 8.22545 18.4926C8.16744 18.5634 8.13574 18.6521 8.13574 18.7436C8.13574 18.8352 8.16744 18.9239 8.22545 18.9947C8.28347 19.0655 8.36422 19.114 8.45397 19.132L8.7744 19.1971C9.16953 19.2772 9.53228 19.472 9.81737 19.7571C10.1025 20.0422 10.2972 20.4049 10.3774 20.8001L10.4425 21.1205C10.4605 21.2103 10.509 21.291 10.5798 21.349C10.6506 21.407 10.7393 21.4387 10.8308 21.4387C10.9224 21.4387 11.0111 21.407 11.0819 21.349C11.1527 21.291 11.2012 21.2103 11.2192 21.1205L11.2842 20.8001C11.3644 20.4049 11.5592 20.0422 11.8443 19.7571C12.1294 19.472 12.4921 19.2772 12.8872 19.1971Z" fill="white"/>
<path d="M20.654 13.3942L21.8333 13.1551C21.951 13.131 22.0568 13.067 22.1327 12.974C22.2087 12.8809 22.2502 12.7645 22.2502 12.6443C22.2502 12.5242 22.2087 12.4078 22.1327 12.3147C22.0568 12.2216 21.951 12.1577 21.8333 12.1336L20.654 11.8945C20.0859 11.7792 19.5643 11.4991 19.1544 11.0892C18.7445 10.6793 18.4644 10.1577 18.3491 9.5896L18.11 8.41033C18.0864 8.2924 18.0226 8.1863 17.9296 8.11007C17.8365 8.03384 17.72 7.99219 17.5997 7.99219C17.4794 7.99219 17.3629 8.03384 17.2698 8.11007C17.1768 8.1863 17.113 8.2924 17.0894 8.41033L16.8502 9.5896C16.7351 10.1578 16.455 10.6794 16.0451 11.0893C15.6352 11.4992 15.1135 11.7793 14.5454 11.8945L13.3661 12.1336C13.2484 12.1577 13.1426 12.2216 13.0667 12.3147C12.9907 12.4078 12.9492 12.5242 12.9492 12.6443C12.9492 12.7645 12.9907 12.8809 13.0667 12.974C13.1426 13.067 13.2484 13.131 13.3661 13.1551L14.5454 13.3942C15.1135 13.5094 15.6352 13.7894 16.0451 14.1994C16.455 14.6093 16.7351 15.1309 16.8502 15.6991L17.0894 16.8784C17.113 16.9963 17.1768 17.1024 17.2698 17.1786C17.3629 17.2548 17.4794 17.2965 17.5997 17.2965C17.72 17.2965 17.8365 17.2548 17.9296 17.1786C18.0226 17.1024 18.0864 16.9963 18.11 16.8784L18.3491 15.6991C18.4644 15.131 18.7445 14.6094 19.1544 14.1995C19.5643 13.7896 20.0859 13.5095 20.654 13.3942Z" fill="white"/>
</g>
<defs>
<linearGradient id="paint0_linear_716_218" x1="29.593" y1="15.0001" x2="0.0851957" y2="11.7604" gradientUnits="userSpaceOnUse">
<stop stop-color="#8D65E9"/>
<stop offset="0.483" stop-color="#5391E4"/>
<stop offset="1" stop-color="#6BCD94"/>
</linearGradient>
<clipPath id="clip0_716_218">
<rect width="30" height="30" fill="white"/>
</clipPath>
</defs>
</svg>
