<?xml version="1.0" encoding="UTF-8"?>
<svg id="Camada_1" data-name="Camada 1" xmlns="http://www.w3.org/2000/svg" version="1.1" viewBox="0 0 1920 463.4">
  <defs>
    <style>
      .cls-1 {
        fill: #564998;
      }

      .cls-1, .cls-2 {
        stroke-width: 0px;
      }

      .cls-2 {
        fill: #fff;
      }
    </style>
  </defs>
  <g>
    <g>
      <polygon class="cls-2" points="659.9 93 618.3 93 618.3 358.1 776.2 358.1 776.2 319.1 659.9 319.1 659.9 93"/>
      <path class="cls-2" d="M954.1,312.3v-80.2c0-23-7.1-41-21.2-53.5-13.9-12.3-33.6-18.6-58.5-18.6s-42.6,5.5-57.4,16.3c-15.1,11-23.9,26.5-26.2,46.1l-.7,5.5h39.5l.8-3.9c1.7-8.3,6.1-14.7,13.4-19.7,7.5-5.1,17.3-7.7,29.1-7.7s23.7,3.1,30.9,9.1c7,5.9,10.4,13.9,10.4,24.7v7.8h-49.8c-25.3,0-45.1,5.4-58.6,16-14,10.9-21,26.7-21,46.9s7,33,20.7,43.6c13.3,10.4,31.1,15.6,52.8,15.6s44.4-8.1,59.2-24.1c1.6,5.3,4.2,9.7,7.8,13.2,6.1,5.8,15.6,8.7,28.9,8.7h21.3v-37.2h-14c-4.7,0-7.5-1.4-7.5-8.6ZM861.7,273.1h52.7v4.2c0,14.5-4.6,25.8-14.1,34.5-9.5,8.7-22.8,13.1-39.7,13.1s-20.2-2.5-26.5-7.4c-6.1-4.7-9-10.6-9-18.3,0-11.2,3.8-26.1,36.6-26.1Z"/>
      <path class="cls-2" d="M1169.6,206.8c-8.1-15.1-19.4-26.8-33.7-34.8-14.2-7.9-30.5-11.9-48.5-11.9s-43.4,7.9-58.9,23.6v-90.7h-39.8v265.1h35.1l3-21.2c5.5,5.8,12.1,10.7,19.7,14.6,11.3,5.8,25.1,8.7,40.9,8.7s34.1-4.3,48.4-12.7c14.3-8.4,25.7-20.4,33.8-35.5,8-15,12.1-32.5,12.1-51.9s-4.1-38.4-12.1-53.4ZM1055.2,204.4c8.5-5.2,18.4-7.8,29.3-7.8,17.2,0,30.6,5.7,41,17.5,10.4,11.8,15.7,27.3,15.7,46.1s-5.3,34.4-15.7,46.1c-10.4,11.8-23.8,17.5-41,17.5s-20.8-2.7-29.3-8c-8.5-5.3-15.2-12.9-19.9-22.6-4.8-9.9-7.2-21.2-7.2-33.8s2.4-23.4,7.1-33c4.7-9.4,11.3-16.9,19.8-22Z"/>
    </g>
    <polygon class="cls-2" points="1209.7 385.8 1284.9 385.8 1284.9 351 1247.4 351 1247.4 111.8 1284.9 111.8 1284.9 76.9 1209.7 76.9 1209.7 385.8"/>
    <polygon class="cls-2" points="1315.1 139.8 1368.6 139.8 1368.6 323.3 1315.1 323.3 1315.1 358.2 1461.9 358.2 1461.9 323.3 1408.7 323.3 1408.7 139.8 1461.9 139.8 1461.9 104.9 1315.1 104.9 1315.1 139.8"/>
    <path class="cls-2" d="M1570,104.9l-89.7,253.3h41.4l23.6-65.7h92.9l23.3,65.7h42.8l-90.1-253.3h-44.2ZM1625.7,255.1h-68.2l33.8-97.4,34.4,97.4Z"/>
    <polygon class="cls-2" points="1792.6 76.9 1717.4 76.9 1717.4 111.8 1754.9 111.8 1754.9 351 1717.4 351 1717.4 385.8 1792.6 385.8 1792.6 76.9"/>
    <g>
      <path class="cls-2" d="M1866.3,76.9v8.2h-12.8v36.2h-9.5v-36.2h-12.8v-8.2h35.1Z"/>
      <path class="cls-2" d="M1884,76.9l12.3,32.6,11.9-32.6h12.2v44.3h-9.1v-29.7l-11.5,29.7h-7.7l-11.5-29.7v29.7h-9.1v-44.3h12.5Z"/>
    </g>
  </g>
  <path class="cls-1" d="M436.6,104.9l-78.1-78.1C341.1,9.5,317.6-.3,293-.3h-121.8c-24.6,0-48.2,9.8-65.5,27.1L27.5,104.9C10.1,122.3.4,145.9.4,170.5v121.8c0,24.6,9.8,48.2,27.1,65.5l78.1,78.1c17.4,17.4,41,27.1,65.5,27.1h121.8c24.6,0,48.2-9.8,65.5-27.1l78.1-78.1c17.4-17.4,27.1-41,27.1-65.5v-121.8c0-24.6-9.8-48.2-27.1-65.5ZM405,339.4c-5.6,8.9-21.1,14-42.6,14s-27.2-1.8-42.8-5.3c4.9-19.2,8.6-40.1,11-62.2,14.3-11.2,27.3-22.6,39.1-34.2,6,7.1,11.5,14.2,16.4,21.4,23.3,34,25,56.6,18.9,66.3ZM232.1,435.3c-11.5,0-29.7-13.5-46.2-51.2-2.3-5.3-4.5-10.8-6.5-16.5,17-5.4,34.7-12.4,52.7-20.8,18,8.5,35.7,15.4,52.7,20.8-2,5.7-4.2,11.3-6.5,16.5-16.5,37.8-34.7,51.2-46.2,51.2ZM59.2,339.4c-6.1-9.8-4.3-32.3,18.9-66.3,4.9-7.1,10.4-14.2,16.4-21.4,11.7,11.6,24.8,23.1,39.1,34.2,2.3,22.2,6.1,43.1,11,62.2-15.5,3.5-30,5.3-42.8,5.3-21.5,0-37-5.1-42.6-14ZM59.2,123.3c5.6-8.9,21.1-14,42.6-14s27.2,1.8,42.8,5.3c-4.9,19.2-8.6,40.1-11,62.2-14.3,11.2-27.3,22.6-39.1,34.2-6-7.1-11.5-14.2-16.4-21.4-23.3-34-25-56.6-18.9-66.3ZM232.1,27.5c11.5,0,29.7,13.5,46.2,51.2,2.3,5.3,4.5,10.8,6.5,16.5-17,5.4-34.7,12.4-52.7,20.8-18-8.5-35.7-15.4-52.7-20.8,2-5.7,4.2-11.3,6.5-16.5,16.5-37.8,34.7-51.2,46.2-51.2ZM305.6,231.4c0,13.6-.5,26.9-1.6,39.9-10.5,7.8-21.5,15.3-33,22.5-12.8,8-25.9,15.3-39,22-13.1-6.6-26.2-14-39-22-11.5-7.2-22.5-14.7-33-22.5-1-13-1.6-26.3-1.6-39.9s.5-26.9,1.6-39.9c10.5-7.8,21.5-15.3,33-22.5,12.8-8,25.9-15.3,39-22,13.1,6.6,26.2,14,39,22,11.5,7.2,22.5,14.7,33,22.5,1,13,1.6,26.3,1.6,39.9ZM333.2,214.9c6.2,5.4,12,10.9,17.6,16.4-5.6,5.5-11.4,11-17.6,16.4.2-5.4.3-10.9.3-16.4s0-11-.3-16.4ZM131,247.8c-6.2-5.4-12-10.9-17.6-16.4,5.6-5.5,11.4-11,17.6-16.4-.2,5.4-.3,10.9-.3,16.4s0,11,.3,16.4ZM285.8,145.4c-7.3-4.6-14.6-8.9-21.9-13,7.4-3,14.7-5.8,22-8.3,2.4-.8,4.7-1.6,7-2.3,2.7,10.4,4.9,21.2,6.8,32.5-4.5-3-9.1-6-13.8-8.9ZM178.3,124.1c7.2,2.5,14.6,5.3,22,8.3-7.3,4.1-14.6,8.4-21.9,13-4.7,2.9-9.3,5.9-13.8,8.9,1.8-11.3,4.1-22.1,6.8-32.5,2.3.7,4.7,1.5,7,2.3ZM164.6,308.4c4.5,3,9.1,6,13.8,8.9,7.3,4.6,14.6,8.9,21.9,13-7.4,3-14.7,5.8-22,8.3-2.4.8-4.7,1.6-7,2.3-2.7-10.4-4.9-21.2-6.8-32.5ZM285.8,338.6c-7.2-2.5-14.6-5.3-22-8.3,7.3-4.1,14.6-8.4,21.9-13,4.7-2.9,9.3-5.9,13.8-8.9-1.8,11.3-4.1,22.1-6.8,32.5-2.3-.7-4.7-1.5-7-2.3ZM369.7,211c-11.7-11.6-24.8-23.1-39.1-34.2-2.3-22.2-6.1-43.1-11-62.2,15.5-3.5,30-5.3,42.8-5.3h0c21.5,0,37,5.1,42.6,14,6.1,9.8,4.3,32.3-18.9,66.3-4.9,7.1-10.4,14.2-16.4,21.4ZM338.9,46.5l35.5,35.5c-3.8-.3-7.8-.5-12-.5-15.3,0-32.4,2.1-50.7,6.3-8.5-24.7-19.2-45.3-31.4-60.3h12.7c17.3,0,33.6,6.7,45.9,19ZM125.3,46.5c12.3-12.3,28.5-19,45.9-19h12.7c-12.2,15.1-22.9,35.7-31.4,60.3-18.3-4.2-35.4-6.3-50.7-6.3s-8.1.2-12,.5l35.5-35.5ZM28.2,170.5c0-5.9.8-11.6,2.3-17.2,5.5,23.6,21.2,50.7,44.9,78.1-23.7,27.4-39.4,54.5-44.9,78.1-1.5-5.5-2.3-11.3-2.3-17.2v-121.8ZM125.3,416.3l-35.5-35.5c3.8.3,7.8.5,12,.5,15.3,0,32.4-2.1,50.7-6.3,8.5,24.7,19.2,45.3,31.4,60.3h-12.7c-17.3,0-33.6-6.7-45.9-19ZM338.9,416.3c-12.3,12.3-28.5,19-45.9,19h-12.7c12.2-15.1,22.9-35.7,31.4-60.3,18.3,4.2,35.4,6.3,50.7,6.3s8.1-.2,12-.5l-35.5,35.5ZM436,292.3c0,5.9-.8,11.6-2.3,17.2-5.5-23.6-21.2-50.7-44.9-78.1,23.7-27.4,39.4-54.5,44.9-78.1,1.5,5.5,2.3,11.3,2.3,17.2v121.8Z"/>
</svg>