<svg height="60" width="100" xmlns="http://www.w3.org/2000/svg"><rect fill="#fff" height="60" rx="4" width="100"/><path d="m39.2 23.9h2.6v-4.9h2.7v4.9h3.6v2.3h-3.5v7.1s-.1 1 .6 1h2.9v2.4h-4.6c-.1 0-.9-.1-1.4-.8-.4-.6-.4-1.2-.3-1.4v-8.3h-2.6z" fill="#9f221f"/><path d="m75 24v9.2s0 3.5 3.2 3.5h5.3v1s.1 1.1-1.2 1.1h-7.3v2.4h8.2s3.2-.4 3.2-4.4v-12.8h-2.9v10.3h-4.2s-1.4-.1-1.4-2c0-2.5-.1-8.3-.1-8.3zm-18 0h-7.9l-.1 17.1h2.9v-4.4h5.3s4-.5 4-6.7c-.1-6.1-4.2-6-4.2-6zm-1 10.4h-4.1v-8.2h4.1s2.8.1 2.8 4-2.8 4.2-2.8 4.2zm14.7-10.4h-8.3v2.1h6.5c2.2 0 2.4 1.4 2.4 1.4v1.5h-5.8s-3.9-.1-3.9 3.5c0 3.9 3.3 4.2 3.3 4.2h9.1v-9.4c0-3.4-3.3-3.3-3.3-3.3zm.4 10.4h-5.1s-1.2 0-1.2-1.7 1.2-1.5 1.2-1.5h5.1z"/><g fill="#9f221f"><path d="m33.3 24c-3.5 0-6.3 2.8-6.3 6.3s2.8 6.3 6.3 6.3 6.3-2.8 6.3-6.3-2.8-6.3-6.3-6.3zm2.2 10h-4.6s-.7 0-.7-.7v-3s0-.7.7-.7v-2.2s0-.8.8-.8h3s.8 0 .8.7v2.3s.7 0 .7.7v3s.1.7-.7.7z"/><path d="m34 27.5h-1.8c-.4 0-.7.3-.7.7v.8c0 .4.3.7.7.7h1.8c.4 0 .7-.3.7-.7v-.8c.1-.4-.2-.7-.7-.7zm-10.9-8.6v5.1h-4.1s-5.4.2-5.4 6.5 5.4 6.2 5.4 6.2h7v-17.8zm0 15.5h-4.1s-2.8-.1-2.8-4 2.8-4.2 2.8-4.2h4.1z"/></g></svg>