<svg height="60" width="100" xmlns="http://www.w3.org/2000/svg"><g fill="none" fill-rule="evenodd"><rect fill="#26347d" height="60" rx="5" width="100"/><path d="m50.103 49.081c-.28-.13-.562-.255-.839-.388a2.354 2.354 0 0 1 -.4-.227c-.177-.132-.225-.317-.171-.53.052-.203.192-.31.393-.335.167-.02.34-.029.508-.013.291.03.581.082.887.126l.211-.856c-.33-.054-.644-.123-.959-.155-.488-.05-.969-.02-1.435.163-1.167.455-1.226 1.97-.479 2.529.208.154.445.27.677.393.232.122.481.212.707.344.271.155.343.35.274.63-.054.216-.23.361-.526.367a5.384 5.384 0 0 1 -.878-.055c-.242-.035-.477-.117-.724-.18l-.248.852a4.738 4.738 0 0 0 1.711.3c.478-.01.928-.108 1.348-.346.828-.474 1.115-2.076-.057-2.619zm-15.177-2.269h-1.321v5.125h3.164c.042-.285.184-.558.229-.869h-2.072zm9.842 5.061c.011.03.017.066.026.104l-1.412.002-.041-.112c-.093-.321-.191-.64-.289-.96-.017-.059-.04-.112-.063-.175-.544 0-1.133-.002-1.671.006-.041 0-.05.058-.066.102a34.1 34.1 0 0 0 -.358 1.033l-.061.102-1.166-.023c.093-.264.182-.55.273-.799.503-1.395.977-2.637 1.475-4.035.047-.134-.325-.327-.182-.324.409.01 1.284.005 1.692.002.086 0 .139.015.17.108.556 1.633 1.115 3.335 1.673 4.969zm-2.603-3.817-.612 1.852h1.184zm13.461 1.667h1.803v-.851h-1.801v-1.215h1.901c.043-.29.086-.566.129-.845h-3.366v5.124h3.41c.045-.29.088-.565.133-.864h-2.209zm8.5-.353c.024-.008.049-.017.071-.023.41-.152.726-.404.837-.833.161-.627.022-1.269-.679-1.534a2.334 2.334 0 0 0 -.469-.142c-.107-.018-.27-.03-.377-.043l-2.361.006v5.15h1.334l-.002-4.304c.299-.032.59-.041.873.061.191.068.32.205.357.404.09.471-.047.89-.676.948-.115.01-.387.009-.506.006l1.695 2.924 1.385.002-1.555-2.6c.024-.01.048-.013.073-.022z" fill="#fff"/><path d="m57.384 27.722h11.994v.499h-12.292l-.48.81-7.958-.81h-18.647v-.5h18.006l9.861-.81-.484.81zm-.912 1.683-8.037.812h-18.434v.5h18.891l6.321.81.48-.81h13.686v-.5h-13.389zm-1.391 2.495-6.218.81h-18.862v.5h19.136l4.682.81.482-.81h15.078v-.5h-14.782zm-1.396 2.495-4.396.811h-19.288v.5h19.381l3.042.81.482-.81h16.473v-.5h-16.175zm-1.391 2.494-3.272.812h-19.02v.501h19l2.031.81.482-.81h17.864v-.501h-17.569zm9.753-17.358-13.357.707h-18.689v.5h16.262l14.525.915.543-.915h8.049v-.5h-7.752zm-2.788 4.886-11.68.81h-17.578v.5h18.402l9.598.81.481-.81h10.896v-.5h-10.601zm1.395-2.495-13.501.811h-17.152v.5h18.157l11.235.81.482-.81h9.504v-.5h-9.209zm7.3-12.848 1.261-2.12-24.586.81h-14.628v.5h16.741zm-17.056 30.396-1.926.729h-18.971v.499h18.516l1.121.892.532-.892h19.209v-.5h-18.913zm12.742-22.537-17.304.81h-16.335v.5h17.722l14.656.811.482-.811h6.518v-.5h-6.223zm-14.135 24.945-1.719.81h-17.785v.5h17.612l.632.81.482-.81h20.652v-.5h-20.356zm15.529-27.44-19.124.81h-15.91v.5h17.477l16.294.811.482-.81h5.125v-.5h-4.828l.484-.81zm2.786-4.99-22.764.811h-15.055v.5h16.986l19.574.81.48-.81h2.338v-.5h-2.041zm-1.395 2.496-20.942.81h-15.482v.5h17.231l17.935.81.481-.81h3.73v-.5h-3.435z" fill="#db428a"/></g></svg>