<svg height="60" width="100" xmlns="http://www.w3.org/2000/svg" xmlns:xlink="http://www.w3.org/1999/xlink"><linearGradient id="a" gradientUnits="userSpaceOnUse" x1="63.6" x2="83.069" y1="24.45" y2="24.45"><stop offset=".3" stop-color="#00b4e6"/><stop offset="1" stop-color="#088ccb"/></linearGradient><rect fill="#fff" height="60" rx="4" width="100"/><g clip-rule="evenodd" fill-rule="evenodd"><path d="m34.7 20.6s-2.6 0-3.3 2.5c-.6 2.3-2.4 8.5-2.5 8.7h-.5s-1.8-6.4-2.5-8.7c-.7-2.5-3.3-2.5-3.3-2.5h-5.9v18.7h5.9v-11.1h.4l3.4 11.1h4.1l3.4-11.1h.5v11.1h5.9v-18.7zm21.6 0s-1.7.2-2.5 2l-4.2 9.2h-.5v-11.2h-5.9v18.7h5.6s1.8-.2 2.6-2l4.1-9.2h.5v11.1h5.9v-18.6zm8.1 8.5v10.2h5.9v-6h6.4c2.8 0 5.1-1.8 6-4.3h-18.3z" fill="#4db45e"/><path d="m76.7 20.6h-13.1c.7 3.6 3.3 6.4 6.8 7.4.8.2 1.6.3 2.5.3h10.1c.1-.4.1-.9.1-1.3 0-3.5-2.9-6.4-6.4-6.4z" fill="url(#a)"/></g></svg>