<svg width="101" height="61" viewBox="0 0 101 61" fill="none" xmlns="http://www.w3.org/2000/svg"><g clip-path="url(#clip0_101_2)"><path d="M96.188 60.847H4.18799C1.97885 60.847 0.187988 59.0562 0.187988 56.847V4.84705C0.187988 2.63791 1.97885 0.847046 4.18799 0.847046H96.188C98.3971 0.847046 100.188 2.63791 100.188 4.84705V56.847C100.188 59.0562 98.3971 60.847 96.188 60.847Z" fill="white"/><path fill-rule="evenodd" clip-rule="evenodd" d="M64.5919 26.8751C64.2412 29.2004 62.4782 29.2004 60.7715 29.2004H59.8016L60.4822 24.8583C60.5022 24.7315 60.5664 24.616 60.6633 24.5327C60.7602 24.4493 60.8835 24.4035 61.011 24.4035H61.456C62.6182 24.4035 63.7137 24.4035 64.2791 25.0692C64.6181 25.4673 64.7202 26.0578 64.5933 26.8751M63.8498 20.8075H57.4183C57.2052 20.8074 56.9991 20.884 56.8371 21.0235C56.6751 21.1629 56.5679 21.3561 56.5348 21.5681L53.9342 38.1772C53.9221 38.2542 53.9267 38.333 53.9477 38.4081C53.9687 38.4832 54.0056 38.5528 54.0558 38.6121C54.1061 38.6715 54.1685 38.7192 54.2387 38.752C54.309 38.7847 54.3855 38.8018 54.463 38.802H57.7638C58.0714 38.802 58.3331 38.5779 58.3816 38.2708L59.1197 33.5609C59.1528 33.3492 59.2599 33.1564 59.4216 33.0172C59.5833 32.878 59.7891 32.8015 60.0019 32.8016H62.0371C66.2738 32.8016 68.72 30.736 69.3587 26.6431C69.6466 24.8543 69.3691 23.4478 68.538 22.4631C67.6232 21.3809 66.0015 20.8075 63.8498 20.8075Z" fill="#0079C1"/><path fill-rule="evenodd" clip-rule="evenodd" d="M18.7165 26.8751C18.3657 29.2004 16.6027 29.2004 14.896 29.2004H13.9275L14.6081 24.8583C14.628 24.7315 14.6922 24.616 14.7892 24.5327C14.8861 24.4493 15.0094 24.4035 15.1369 24.4035H15.5819C16.7428 24.4035 17.8383 24.4035 18.405 25.0692C18.7427 25.4673 18.8448 26.0578 18.7165 26.8751ZM17.9744 20.8075H11.5441C11.331 20.8074 11.1249 20.884 10.9629 21.0235C10.8009 21.1629 10.6938 21.3561 10.6607 21.5681L8.06004 38.1772C8.04794 38.2544 8.05258 38.3332 8.07365 38.4084C8.09473 38.4836 8.13173 38.5533 8.18211 38.6126C8.23249 38.672 8.29505 38.7197 8.36549 38.7524C8.43593 38.7851 8.51256 38.802 8.59012 38.802H11.6606C12.1004 38.802 12.4747 38.4804 12.5441 38.0427L13.2456 33.5609C13.2787 33.3493 13.3857 33.1564 13.5475 33.0172C13.7092 32.878 13.915 32.8016 14.1278 32.8017H16.163C20.3996 32.8017 22.8458 30.7361 23.4845 26.6431C23.7725 24.8543 23.4963 23.4478 22.6639 22.4632C21.749 21.3809 20.1274 20.8075 17.9744 20.8075ZM32.9067 32.8372C32.6096 34.6102 31.2131 35.8005 29.4305 35.8005C28.5379 35.8005 27.822 35.5105 27.3626 34.9622C26.9071 34.4191 26.7343 33.6453 26.8796 32.7845C27.1571 31.0274 28.5772 29.7988 30.331 29.7988C31.2066 29.7988 31.916 30.0915 32.3858 30.6451C32.857 31.2014 33.0429 31.9804 32.9067 32.8372ZM37.1997 26.8H34.12C33.9922 26.8 33.8686 26.8459 33.7714 26.9295C33.6743 27.0131 33.6099 27.1289 33.59 27.2561L33.4538 28.1234L33.2392 27.8097C32.5717 26.8342 31.0849 26.5073 29.6007 26.5073C26.1977 26.5073 23.2921 29.1042 22.7254 32.7476C22.4322 34.5654 22.8498 36.3014 23.8733 37.5128C24.813 38.6267 26.1532 39.0907 27.7513 39.0907C30.4946 39.0907 32.0154 37.3164 32.0154 37.3164L31.878 38.1785C31.8661 38.2556 31.8709 38.3343 31.8921 38.4093C31.9133 38.4843 31.9503 38.5538 32.0006 38.6131C32.051 38.6723 32.1135 38.7199 32.1838 38.7525C32.2542 38.7851 32.3307 38.802 32.4081 38.802H35.1815C35.6213 38.802 35.9956 38.4804 36.0636 38.0427L37.7298 27.4235C37.7417 27.3464 37.7369 27.2677 37.7157 27.1927C37.6945 27.1177 37.6575 27.0482 37.6071 26.9889C37.5568 26.9297 37.4943 26.8821 37.424 26.8495C37.3536 26.8169 37.2771 26.8 37.1997 26.8Z" fill="#00457C"/><path fill-rule="evenodd" clip-rule="evenodd" d="M78.7823 32.8372C78.4852 34.6102 77.0887 35.8005 75.3061 35.8005C74.4134 35.8005 73.6962 35.5105 73.2381 34.9622C72.7813 34.4191 72.6099 33.6453 72.7552 32.7845C73.0326 31.0274 74.4514 29.7988 76.2065 29.7988C77.0821 29.7988 77.7915 30.0915 78.2601 30.6451C78.7312 31.2014 78.9158 31.9804 78.7823 32.8372ZM83.0752 26.8H79.9943C79.8667 26.8003 79.7434 26.8464 79.6465 26.9299C79.5496 27.0135 79.4854 27.1291 79.4655 27.2561L79.3294 28.1234L79.1147 27.8097C78.4472 26.8342 76.9604 26.5073 75.4762 26.5073C72.0733 26.5073 69.1677 29.1042 68.601 32.7476C68.3065 34.5654 68.7253 36.3014 69.7488 37.5128C70.6885 38.6267 72.0288 39.0907 73.6268 39.0907C76.3701 39.0907 77.891 37.3164 77.891 37.3164L77.7535 38.1785C77.7417 38.2556 77.7465 38.3343 77.7676 38.4093C77.7888 38.4843 77.8258 38.5538 77.8762 38.6131C77.9265 38.6723 77.989 38.7199 78.0594 38.7525C78.1297 38.7851 78.2062 38.802 78.2836 38.802H81.0557C81.4968 38.802 81.8711 38.4804 81.9392 38.0427L83.6053 27.4235C83.6172 27.3464 83.6124 27.2677 83.5912 27.1927C83.5701 27.1177 83.533 27.0482 83.4827 26.9889C83.4323 26.9297 83.3698 26.8821 83.2995 26.8495C83.2292 26.8169 83.1527 26.8 83.0752 26.8Z" fill="#0079C1"/><path fill-rule="evenodd" clip-rule="evenodd" d="M53.6031 26.7999H50.5078C50.3618 26.7998 50.218 26.8358 50.0891 26.9047C49.9601 26.9737 49.85 27.0735 49.7683 27.1954L45.4976 33.5292L43.6888 27.4419C43.6334 27.2563 43.5201 27.0936 43.3656 26.978C43.2112 26.8624 43.0239 26.7999 42.8315 26.7999H39.7885C39.7033 26.8002 39.6194 26.8208 39.5438 26.8602C39.4681 26.8996 39.4028 26.9565 39.3533 27.0263C39.3038 27.0961 39.2715 27.1768 39.2591 27.2617C39.2467 27.3465 39.2546 27.4332 39.282 27.5144L42.6902 37.5919L39.4835 42.1475C39.4266 42.2284 39.3929 42.3236 39.3861 42.4225C39.3793 42.5214 39.3996 42.6203 39.4449 42.7084C39.4902 42.7965 39.5586 42.8703 39.6428 42.9218C39.7269 42.9733 39.8235 43.0005 39.922 43.0004H43.0134C43.3066 43.0004 43.5815 42.8554 43.749 42.6128L54.0429 27.6475C54.0984 27.5665 54.131 27.4718 54.137 27.3736C54.143 27.2753 54.1222 27.1773 54.077 27.0901C54.0317 27.0028 53.9636 26.9297 53.8801 26.8786C53.7966 26.8274 53.7009 26.8002 53.6031 26.7999Z" fill="#00457C"/><path fill-rule="evenodd" clip-rule="evenodd" d="M86.7047 21.2636L84.0661 38.1785C84.0542 38.2556 84.059 38.3343 84.0801 38.4093C84.1013 38.4843 84.1383 38.5538 84.1887 38.6131C84.239 38.6723 84.3015 38.7198 84.3719 38.7525C84.4422 38.7851 84.5187 38.802 84.5961 38.802H87.2504C87.6902 38.802 88.0658 38.4804 88.1339 38.0427L90.7371 21.4323C90.7492 21.3552 90.7446 21.2763 90.7235 21.2011C90.7025 21.1259 90.6655 21.0563 90.6151 20.9969C90.5647 20.9375 90.5021 20.8898 90.4317 20.8571C90.3613 20.8244 90.2846 20.8075 90.2071 20.8075H87.236C87.1082 20.8072 86.9844 20.8531 86.8872 20.9367C86.7899 21.0204 86.7244 21.1363 86.7047 21.2636Z" fill="#0079C1"/></g><defs><clipPath id="clip0_101_2"><rect width="101" height="61" fill="white"/></clipPath></defs></svg>