<?xml version="1.0" encoding="UTF-8"?>
<svg id="Camada_1" data-name="Camada 1" xmlns="http://www.w3.org/2000/svg" version="1.1" viewBox="0 0 1920 1920">
  <defs>
    <style>
      .cls-1 {
        fill: #564998;
        stroke-width: 0px;
      }
    </style>
  </defs>
  <path class="cls-1" d="M1807.5,435.7l-323.6-323.6C1411.8,40.1,1314.2-.4,1212.3-.4h-504.7c-101.8,0-199.5,40.5-271.5,112.5L112.4,435.7C40.4,507.8,0,605.4,0,707.3v504.7c0,101.8,40.5,199.5,112.5,271.5l323.6,323.6c72,72,169.7,112.5,271.5,112.5h504.7c101.8,0,199.5-40.5,271.5-112.5l323.6-323.6c72-72,112.5-169.7,112.5-271.5v-504.7c0-101.8-40.5-199.5-112.5-271.5ZM1676.4,1407.3c-23.1,37-87.5,58.2-176.6,58.2s-112.8-7.5-177.1-21.8c20.3-79.4,35.8-166,45.5-257.8,59.1-46.2,113.3-93.8,161.8-141.9,25,29.5,47.7,59,67.9,88.5,96.4,140.9,103.7,234.3,78.5,274.8ZM959.9,1804.4c-47.7,0-123-55.7-191.4-212.2-9.6-21.9-18.6-44.7-27-68.5,70.4-22.4,143.8-51.3,218.4-86.4,74.6,35.1,148,64,218.4,86.4-8.4,23.7-17.4,46.6-27,68.5-68.4,156.4-143.8,212.2-191.4,212.2ZM243.5,1407.3c-25.3-40.4-17.9-133.9,78.5-274.8,20.2-29.5,42.9-59,67.9-88.5,48.6,48,102.8,95.7,161.8,141.9,9.7,91.8,25.2,178.4,45.5,257.8-64.3,14.3-124.2,21.8-177.1,21.8-89.1,0-153.4-21.2-176.6-58.2ZM243.5,512c23.1-37,87.5-58.2,176.6-58.2s112.8,7.5,177.1,21.8c-20.3,79.4-35.8,166-45.5,257.8-59.1,46.2-113.3,93.8-161.8,141.9-25-29.5-47.7-59-67.9-88.5-96.4-140.9-103.7-234.3-78.5-274.8ZM959.9,114.8c47.7,0,123,55.7,191.4,212.2,9.6,21.9,18.6,44.7,27,68.5-70.4,22.4-143.8,51.3-218.4,86.4-74.6-35.1-148-64-218.4-86.4,8.4-23.7,17.4-46.6,27-68.5,68.4-156.4,143.8-212.2,191.4-212.2ZM1264.7,959.6c0,56.2-2.2,111.5-6.5,165.3-43.4,32.2-89.1,63.4-136.8,93.1-52.9,33.1-107.1,63.6-161.5,91.1-54.4-27.5-108.6-58-161.5-91.1-47.6-29.8-93.3-60.9-136.8-93.1-4.3-53.9-6.5-109.2-6.5-165.3s2.2-111.5,6.5-165.3c43.4-32.2,89.1-63.4,136.8-93.1,52.9-33.1,107.1-63.6,161.5-91.1,54.4,27.5,108.6,58,161.5,91.1,47.6,29.8,93.3,60.9,136.8,93.1,4.3,53.9,6.5,109.2,6.5,165.3ZM1378.9,891.5c25.5,22.4,49.9,45.2,72.9,68.1-23.1,22.9-47.4,45.7-72.9,68.1.7-22.5,1.1-45.2,1.1-68.1s-.4-45.6-1.1-68.1ZM541,1027.8c-25.5-22.4-49.9-45.2-72.9-68.1,23.1-22.9,47.4-45.7,72.9-68.1-.7,22.5-1.1,45.2-1.1,68.1s.4,45.6,1.1,68.1ZM1182.5,603.5c-30.3-18.9-60.6-36.8-90.9-53.8,30.6-12.6,61.1-24.1,91.1-34.4,9.7-3.3,19.4-6.5,29-9.6,11,43,20.3,88,28,134.7-18.7-12.5-37.8-24.9-57.2-37ZM737.2,515.3c30,10.3,60.4,21.8,91.1,34.4-30.3,17-60.6,34.9-90.9,53.8-19.4,12.1-38.5,24.5-57.2,37,7.7-46.7,17-91.7,28-134.7,9.6,3.1,19.3,6.2,29,9.6ZM680.2,1278.8c18.7,12.5,37.8,24.9,57.2,37,30.3,18.9,60.6,36.8,90.9,53.8-30.6,12.6-61.1,24.1-91.1,34.4-9.7,3.3-19.4,6.5-29,9.6-11-43-20.3-88-28-134.7ZM1182.7,1404c-30-10.3-60.4-21.8-91.1-34.4,30.3-17,60.6-34.9,90.9-53.8,19.4-12.1,38.5-24.5,57.2-37-7.7,46.7-17,91.7-28,134.7-9.6-3.1-19.3-6.2-29-9.6ZM1530,875.3c-48.6-48-102.8-95.7-161.8-141.9-9.7-91.8-25.2-178.4-45.5-257.8,64.3-14.3,124.2-21.8,177.1-21.8h0c89.1,0,153.4,21.2,176.5,58.2,25.3,40.4,17.9,133.9-78.5,274.8-20.2,29.5-42.9,59-67.9,88.5ZM1402.4,193.6l146.9,146.9c-15.9-1.3-32.5-2-49.5-1.9-63.5,0-134.4,8.9-210.2,26.3-35.3-102.2-79.6-187.6-130-250h52.7c71.8,0,139.3,28,190.1,78.7ZM517.5,193.6c50.8-50.8,118.3-78.7,190.1-78.7h52.7c-50.5,62.4-94.7,147.8-130,250-75.8-17.4-146.7-26.3-210.2-26.3s-33.6.7-49.5,2l147-146.9ZM115.1,707.3c0-24.4,3.3-48.2,9.5-71.1,22.6,97.9,87.7,210.2,186,323.5-98.3,113.4-163.3,225.6-186,323.5-6.2-22.9-9.5-46.8-9.5-71.1v-504.7ZM517.5,1725.7l-147-146.9c15.9,1.3,32.5,2,49.5,2,63.5,0,134.4-8.9,210.2-26.3,35.3,102.2,79.6,187.6,130,250h-52.7c-71.8,0-139.3-28-190.1-78.7ZM1402.4,1725.7c-50.8,50.8-118.3,78.7-190.1,78.7h-52.7c50.5-62.4,94.7-147.8,130-250,75.8,17.4,146.7,26.3,210.2,26.3s33.6-.7,49.5-2l-146.9,146.9ZM1804.7,1212c0,24.4-3.3,48.2-9.5,71.1-22.6-97.9-87.7-210.2-186-323.5,98.3-113.4,163.3-225.6,186-323.5,6.2,22.9,9.5,46.8,9.5,71.1v504.7Z"/>
</svg>