<svg width="1442" height="871" viewBox="0 0 1442 871" fill="none" xmlns="http://www.w3.org/2000/svg">
<path opacity="0.27" d="M72.9843 870V803.154M72.9843 870H1V803.154M72.9843 870H144.969M72.9843 803.154L72.9843 736.308M72.9843 803.154H1M72.9843 803.154L144.969 803.154M72.9843 736.308V669.462M72.9843 736.308H1M72.9843 736.308L144.969 736.308M72.9843 669.462L72.9843 602.615M72.9843 669.462H1M72.9843 669.462H144.969M72.9843 602.615V535.769M72.9843 602.615H1M72.9843 602.615H144.969M72.9843 535.769V468.923M72.9843 535.769H1M72.9843 535.769H144.969M72.9843 468.923L72.9843 402.077M72.9843 468.923H1M72.9843 468.923H144.969M72.9843 402.077V335.231M72.9843 402.077H1M72.9843 402.077H144.968M72.9843 335.231V268.385M72.9843 335.231H1M72.9843 335.231H144.968M72.9843 268.385L72.9842 201.539M72.9843 268.385H1M72.9843 268.385H144.968M72.9842 201.539V134.692M72.9842 201.539H1M72.9842 201.539H144.968M72.9842 134.692L72.9842 67.8463M72.9842 134.692H1M72.9842 134.692H144.968M72.9842 67.8463V1.00006M72.9842 67.8463H1M72.9842 67.8463H144.968M72.9842 1.00006L1 1V67.8463M72.9842 1.00006H144.968M1 803.154V736.308M1 736.308V669.462M1 669.462V602.615M1 602.615V535.769M1 535.769V468.923M1 468.923V402.077M1 402.077V335.231M1 335.231V268.385M1 268.385V201.539M1 201.539V134.692M1 134.692V67.8463M144.969 870V803.154M144.969 870H216.953M144.969 803.154V736.308M144.969 803.154H216.953M144.969 736.308L144.969 669.462M144.969 736.308H216.953M144.969 669.462V602.615M144.969 669.462L216.953 669.462M144.969 602.615V535.769M144.969 602.615H216.953M144.969 535.769V468.923M144.969 535.769H216.953M144.969 468.923L144.968 402.077M144.969 468.923H216.953M144.968 402.077V335.231M144.968 402.077H216.953M144.968 335.231V268.385M144.968 335.231H216.953M144.968 268.385V201.539M144.968 268.385H216.953M144.968 201.539L144.968 134.692M144.968 201.539H216.953M144.968 134.692V67.8463M144.968 134.692H216.953M144.968 67.8463V1.00006M144.968 67.8463H216.953M144.968 1.00006H216.953M216.953 870V803.154M216.953 870H288.937M216.953 803.154V736.308M216.953 803.154L288.937 803.154M216.953 736.308L216.953 669.462M216.953 736.308H288.937M216.953 669.462V602.615M216.953 669.462H288.937M216.953 602.615V535.769M216.953 602.615L288.937 602.615M216.953 535.769V468.923M216.953 535.769L288.937 535.769M216.953 468.923L216.953 402.077M216.953 468.923H288.937M216.953 402.077V335.231M216.953 402.077H288.937M216.953 335.231V268.385M216.953 335.231H288.937M216.953 268.385V201.539M216.953 268.385H288.937M216.953 201.539L216.953 134.692M216.953 201.539H288.937M216.953 134.692V67.8463M216.953 134.692H288.937M216.953 67.8463V1.00006M216.953 67.8463H288.937M216.953 1.00006H288.937M288.937 870V803.154M288.937 870H360.921M288.937 803.154V736.308M288.937 803.154H360.921M288.937 736.308V669.462M288.937 736.308L360.921 736.308M288.937 669.462V602.615M288.937 669.462H360.921M288.937 602.615V535.769M288.937 602.615H360.921M288.937 535.769V468.923M288.937 535.769H360.921M288.937 468.923L288.937 402.077M288.937 468.923H360.921M288.937 402.077V335.231M288.937 402.077H360.921M288.937 335.231V268.385M288.937 335.231H360.921M288.937 268.385V201.539M288.937 268.385H360.921M288.937 201.539V134.692M288.937 201.539H360.921M288.937 134.692V67.8463M288.937 134.692H360.921M288.937 67.8463V1.00006M288.937 67.8463H360.921M288.937 1.00006H360.921M504.89 870V803.154M504.89 870H432.905M504.89 870H576.874M504.89 803.154V736.308M504.89 803.154H432.905M504.89 803.154L576.874 803.154M504.89 736.308V669.462M504.89 736.308H432.905M504.89 736.308H576.874M504.89 669.462V602.615M504.89 669.462L432.905 669.462M504.89 669.462H576.874M504.89 602.615V535.769M504.89 602.615H432.905M504.89 602.615H576.874M504.89 535.769V468.923M504.89 535.769H432.905M504.89 535.769H576.874M504.89 468.923L504.89 402.077M504.89 468.923L432.905 468.923M504.89 468.923H576.874M504.89 402.077V335.231M504.89 402.077L432.905 402.077M504.89 402.077H576.874M504.89 335.231V268.385M504.89 335.231L432.905 335.231M504.89 335.231H576.874M504.89 268.385V201.539M504.89 268.385H432.905M504.89 268.385H576.874M504.89 201.539V134.692M504.89 201.539L432.905 201.539M504.89 201.539H576.874M504.89 134.692V67.8462M504.89 134.692L432.905 134.692M504.89 134.692H576.874M504.89 67.8462V1.00006M504.89 67.8462L432.905 67.8463M504.89 67.8462H576.874M504.89 1.00006H432.905M504.89 1.00006H576.874M720.842 870V803.154M720.842 870H648.858M720.842 870H792.827M720.842 803.154V736.308M720.842 803.154L648.858 803.154M720.842 803.154H792.827M720.842 736.308V669.462M720.842 736.308H648.858M720.842 736.308H792.827M720.842 669.462V602.615M720.842 669.462H648.858M720.842 669.462L792.827 669.462M720.842 602.615V535.769M720.842 602.615L648.858 602.615M720.842 602.615H792.827M720.842 535.769V468.923M720.842 535.769L648.858 535.769M720.842 535.769H792.827M720.842 468.923L720.842 402.077M720.842 468.923H648.858M720.842 468.923H792.827M720.842 402.077V335.231M720.842 402.077H648.858M720.842 402.077H792.827M720.842 335.231V268.385M720.842 335.231H648.858M720.842 335.231H792.827M720.842 268.385V201.539M720.842 268.385H648.858M720.842 268.385H792.827M720.842 201.539V134.692M720.842 201.539H648.858M720.842 201.539H792.827M720.842 134.692V67.8462M720.842 134.692H648.858M720.842 134.692H792.827M720.842 67.8462V1.00006M720.842 67.8462H648.858M720.842 67.8462H792.827M720.842 1.00006H648.858M720.842 1.00006H792.827M360.921 870V803.154M360.921 870H432.905M360.921 803.154V736.308M360.921 803.154L432.905 803.154M360.921 736.308V669.462M360.921 736.308H432.905M360.921 669.462V602.615M360.921 669.462H432.905M360.921 602.615V535.769M360.921 602.615H432.905M360.921 535.769V468.923M360.921 535.769H432.905M360.921 468.923L360.921 402.077M360.921 468.923H432.905M360.921 402.077V335.231M360.921 402.077H432.905M360.921 335.231V268.385M360.921 335.231H432.905M360.921 268.385V201.539M360.921 268.385H432.905M360.921 201.539V134.692M360.921 201.539H432.905M360.921 134.692V67.8463M360.921 134.692H432.905M360.921 67.8463V1.00006M360.921 67.8463H432.905M360.921 1.00006H432.905M576.874 870V803.154M576.874 870H648.858M576.874 803.154V736.308M576.874 803.154H648.858M576.874 736.308V669.462M576.874 736.308L648.858 736.308M576.874 669.462V602.615M576.874 669.462H648.858M576.874 602.615V535.769M576.874 602.615H648.858M576.874 535.769V468.923M576.874 535.769H648.858M576.874 468.923L576.874 402.077M576.874 468.923H648.858M576.874 402.077V335.231M576.874 402.077H648.858M576.874 335.231V268.385M576.874 335.231H648.858M576.874 268.385V201.539M576.874 268.385H648.858M576.874 201.539V134.692M576.874 201.539H648.858M576.874 134.692V67.8462M576.874 134.692H648.858M576.874 67.8462V1.00006M576.874 67.8462H648.858M576.874 1.00006H648.858M792.827 870V803.154M792.827 870H864.811M792.827 803.154V736.308M792.827 803.154L864.811 803.154M792.827 736.308V669.462M792.827 736.308L864.811 736.308M792.827 669.462V602.615M792.827 669.462H864.811M792.827 602.615V535.769M792.827 602.615H864.811M792.827 535.769V468.923M792.827 535.769H864.811M792.827 468.923V402.077M792.827 468.923H864.811M792.827 402.077V335.231M792.827 402.077H864.811M792.827 335.231V268.385M792.827 335.231H864.811M792.827 268.385V201.539M792.827 268.385H864.811M792.827 201.539V134.692M792.827 201.539H864.811M792.827 134.692V67.8462M792.827 134.692H864.811M792.827 67.8462V1.00006M792.827 67.8462H864.811M792.827 1.00006H864.811M432.905 870V803.154M432.905 803.154V736.308M432.905 736.308V669.462M432.905 669.462L432.905 602.615M432.905 602.615V535.769M432.905 535.769V468.923M432.905 468.923V402.077M432.905 402.077V335.231M432.905 335.231V268.385M432.905 268.385L432.905 201.539M432.905 201.539V134.692M432.905 134.692V67.8463M432.905 67.8463V1.00006M648.858 870V803.154M648.858 803.154V736.308M648.858 736.308V669.462M648.858 669.462V602.615M648.858 602.615V535.769M648.858 535.769V468.923M648.858 468.923V402.077M648.858 402.077V335.231M648.858 335.231V268.385M648.858 268.385V201.539M648.858 201.539V134.692M648.858 134.692V67.8462M648.858 67.8462V1.00006M864.811 870V803.154M864.811 870H936.795V1.00006H864.811M864.811 803.154V736.308M864.811 803.154H936.794M864.811 736.308V669.462M864.811 736.308H936.794M864.811 669.462V602.615M864.811 669.462H936.794M864.811 602.615V535.769M864.811 602.615H936.794M864.811 535.769V468.923M864.811 535.769H936.794M864.811 468.923V402.077M864.811 468.923H936.794M864.811 402.077V335.231M864.811 402.077H936.794M864.811 335.231V268.385M864.811 335.231H936.794M864.811 268.385V201.539M864.811 268.385H936.794M864.811 201.539V134.692M864.811 201.539H936.794M864.811 134.692V67.8462M864.811 134.692H936.794M864.811 67.8462V1.00006M864.811 67.8462H936.794M577.189 870V803.154M577.189 870H505.205V803.154M577.189 870H649.173M577.189 803.154V736.308M577.189 803.154H505.205M577.189 803.154L649.173 803.154M577.189 736.308V669.462M577.189 736.308H505.205M577.189 736.308L649.173 736.308M577.189 669.462V602.615M577.189 669.462H505.205M577.189 669.462H649.173M577.189 602.615V535.769M577.189 602.615H505.205M577.189 602.615H649.173M577.189 535.769V468.923M577.189 535.769H505.205M577.189 535.769H649.173M577.189 468.923V402.077M577.189 468.923H505.205M577.189 468.923H649.173M577.189 402.077V335.231M577.189 402.077H505.205M577.189 402.077H649.173M577.189 335.231V268.385M577.189 335.231H505.205M577.189 335.231H649.173M577.189 268.385V201.539M577.189 268.385H505.205M577.189 268.385H649.173M577.189 201.539V134.692M577.189 201.539H505.205M577.189 201.539H649.173M577.189 134.692L577.189 67.8463M577.189 134.692H505.205M577.189 134.692H649.173M577.189 67.8463V1.00006M577.189 67.8463H505.205M577.189 67.8463H649.173M577.189 1.00006L505.205 1V67.8463M577.189 1.00006H649.173M505.205 803.154V736.308M505.205 736.308V669.462M505.205 669.462V602.615M505.205 602.615V535.769M505.205 535.769V468.923M505.205 468.923V402.077M505.205 402.077V335.231M505.205 335.231V268.385M505.205 268.385V201.539M505.205 201.539V134.692M505.205 134.692V67.8463M649.173 870V803.154M649.173 870H721.158M649.173 803.154V736.308M649.173 803.154H721.158M649.173 736.308V669.462M649.173 736.308H721.158M649.173 669.462V602.615M649.173 669.462L721.158 669.462M649.173 602.615V535.769M649.173 602.615H721.158M649.173 535.769V468.923M649.173 535.769H721.158M649.173 468.923V402.077M649.173 468.923H721.158M649.173 402.077V335.231M649.173 402.077H721.158M649.173 335.231V268.385M649.173 335.231H721.158M649.173 268.385V201.539M649.173 268.385H721.158M649.173 201.539V134.692M649.173 201.539H721.158M649.173 134.692V67.8463M649.173 134.692H721.158M649.173 67.8463V1.00006M649.173 67.8463H721.158M649.173 1.00006H721.158M721.158 870V803.154M721.158 870H793.142M721.158 803.154V736.308M721.158 803.154L793.142 803.154M721.158 736.308L721.158 669.462M721.158 736.308H793.142M721.158 669.462V602.615M721.158 669.462H793.142M721.158 602.615V535.769M721.158 602.615L793.142 602.615M721.158 535.769V468.923M721.158 535.769L793.142 535.769M721.158 468.923V402.077M721.158 468.923H793.142M721.158 402.077V335.231M721.158 402.077H793.142M721.158 335.231V268.385M721.158 335.231H793.142M721.158 268.385V201.539M721.158 268.385H793.142M721.158 201.539V134.692M721.158 201.539H793.142M721.158 134.692V67.8463M721.158 134.692H793.142M721.158 67.8463V1.00006M721.158 67.8463H793.142M721.158 1.00006H793.142M793.142 870V803.154M793.142 870H865.126M793.142 803.154V736.308M793.142 803.154H865.126M793.142 736.308V669.462M793.142 736.308L865.126 736.308M793.142 669.462V602.615M793.142 669.462H865.126M793.142 602.615V535.769M793.142 602.615H865.126M793.142 535.769V468.923M793.142 535.769H865.126M793.142 468.923L793.142 402.077M793.142 468.923H865.126M793.142 402.077V335.231M793.142 402.077H865.126M793.142 335.231V268.385M793.142 335.231H865.126M793.142 268.385V201.539M793.142 268.385H865.126M793.142 201.539V134.692M793.142 201.539H865.126M793.142 134.692V67.8463M793.142 134.692H865.126M793.142 67.8463V1.00006M793.142 67.8463H865.126M793.142 1.00006H865.126M1009.09 870V803.154M1009.09 870H937.11M1009.09 870H1081.08M1009.09 803.154V736.308M1009.09 803.154H937.11M1009.09 803.154L1081.08 803.154M1009.09 736.308V669.462M1009.09 736.308H937.11M1009.09 736.308H1081.08M1009.09 669.462V602.615M1009.09 669.462L937.11 669.462M1009.09 669.462H1081.08M1009.09 602.615V535.769M1009.09 602.615H937.11M1009.09 602.615H1081.08M1009.09 535.769V468.923M1009.09 535.769H937.11M1009.09 535.769H1081.08M1009.09 468.923V402.077M1009.09 468.923L937.11 468.923M1009.09 468.923H1081.08M1009.09 402.077V335.231M1009.09 402.077L937.11 402.077M1009.09 402.077H1081.08M1009.09 335.231V268.385M1009.09 335.231L937.11 335.231M1009.09 335.231H1081.08M1009.09 268.385V201.539M1009.09 268.385H937.11M1009.09 268.385H1081.08M1009.09 201.539V134.692M1009.09 201.539L937.11 201.539M1009.09 201.539H1081.08M1009.09 134.692V67.8462M1009.09 134.692L937.11 134.692M1009.09 134.692H1081.08M1009.09 67.8462V1.00006M1009.09 67.8462L937.11 67.8463M1009.09 67.8462H1081.08M1009.09 1.00006H937.11M1009.09 1.00006H1081.08M1225.05 870V803.154M1225.05 870H1153.06M1225.05 870H1297.03M1225.05 803.154V736.308M1225.05 803.154L1153.06 803.154M1225.05 803.154H1297.03M1225.05 736.308V669.462M1225.05 736.308H1153.06M1225.05 736.308H1297.03M1225.05 669.462V602.615M1225.05 669.462H1153.06M1225.05 669.462L1297.03 669.462M1225.05 602.615V535.769M1225.05 602.615L1153.06 602.615M1225.05 602.615H1297.03M1225.05 535.769V468.923M1225.05 535.769L1153.06 535.769M1225.05 535.769H1297.03M1225.05 468.923L1225.05 402.077M1225.05 468.923H1153.06M1225.05 468.923H1297.03M1225.05 402.077V335.231M1225.05 402.077H1153.06M1225.05 402.077H1297.03M1225.05 335.231V268.385M1225.05 335.231H1153.06M1225.05 335.231H1297.03M1225.05 268.385V201.539M1225.05 268.385H1153.06M1225.05 268.385H1297.03M1225.05 201.539V134.692M1225.05 201.539H1153.06M1225.05 201.539H1297.03M1225.05 134.692V67.8462M1225.05 134.692H1153.06M1225.05 134.692H1297.03M1225.05 67.8462V1.00006M1225.05 67.8462H1153.06M1225.05 67.8462H1297.03M1225.05 1.00006H1153.06M1225.05 1.00006H1297.03M865.126 870V803.154M865.126 870H937.11M865.126 803.154V736.308M865.126 803.154L937.11 803.154M865.126 736.308V669.462M865.126 736.308H937.11M865.126 669.462V602.615M865.126 669.462H937.11M865.126 602.615V535.769M865.126 602.615H937.11M865.126 535.769V468.923M865.126 535.769H937.11M865.126 468.923V402.077M865.126 468.923H937.11M865.126 402.077V335.231M865.126 402.077H937.11M865.126 335.231V268.385M865.126 335.231H937.11M865.126 268.385V201.539M865.126 268.385H937.11M865.126 201.539V134.692M865.126 201.539H937.11M865.126 134.692V67.8463M865.126 134.692H937.11M865.126 67.8463V1.00006M865.126 67.8463H937.11M865.126 1.00006H937.11M1081.08 870V803.154M1081.08 870H1153.06M1081.08 803.154V736.308M1081.08 803.154H1153.06M1081.08 736.308V669.462M1081.08 736.308L1153.06 736.308M1081.08 669.462V602.615M1081.08 669.462H1153.06M1081.08 602.615V535.769M1081.08 602.615H1153.06M1081.08 535.769V468.923M1081.08 535.769H1153.06M1081.08 468.923V402.077M1081.08 468.923H1153.06M1081.08 402.077V335.231M1081.08 402.077H1153.06M1081.08 335.231V268.385M1081.08 335.231H1153.06M1081.08 268.385V201.539M1081.08 268.385H1153.06M1081.08 201.539V134.692M1081.08 201.539H1153.06M1081.08 134.692V67.8462M1081.08 134.692H1153.06M1081.08 67.8462V1.00006M1081.08 67.8462H1153.06M1081.08 1.00006H1153.06M1297.03 870V803.154M1297.03 870H1369.02M1297.03 803.154V736.308M1297.03 803.154L1369.02 803.154M1297.03 736.308V669.462M1297.03 736.308L1369.02 736.308M1297.03 669.462V602.615M1297.03 669.462H1369.02M1297.03 602.615V535.769M1297.03 602.615H1369.02M1297.03 535.769V468.923M1297.03 535.769H1369.02M1297.03 468.923V402.077M1297.03 468.923H1369.02M1297.03 402.077V335.231M1297.03 402.077H1369.02M1297.03 335.231V268.385M1297.03 335.231H1369.02M1297.03 268.385V201.539M1297.03 268.385H1369.02M1297.03 201.539V134.692M1297.03 201.539H1369.02M1297.03 134.692V67.8462M1297.03 134.692H1369.02M1297.03 67.8462V1.00006M1297.03 67.8462H1369.02M1297.03 1.00006H1369.02M937.11 870V803.154M937.11 803.154V736.308M937.11 736.308V669.462M937.11 669.462V602.615M937.11 602.615V535.769M937.11 535.769V468.923M937.11 468.923V402.077M937.11 402.077V335.231M937.11 335.231V268.385M937.11 268.385L937.11 201.539M937.11 201.539V134.692M937.11 134.692V67.8463M937.11 67.8463V1.00006M1153.06 870V803.154M1153.06 803.154V736.308M1153.06 736.308V669.462M1153.06 669.462V602.615M1153.06 602.615V535.769M1153.06 535.769V468.923M1153.06 468.923V402.077M1153.06 402.077V335.231M1153.06 335.231V268.385M1153.06 268.385V201.539M1153.06 201.539V134.692M1153.06 134.692V67.8462M1153.06 67.8462V1.00006M1369.02 870V803.154M1369.02 870H1441V1.00006H1369.02M1369.02 803.154V736.308M1369.02 803.154H1441M1369.02 736.308V669.462M1369.02 736.308H1441M1369.02 669.462V602.615M1369.02 669.462H1441M1369.02 602.615V535.769M1369.02 602.615H1441M1369.02 535.769V468.923M1369.02 535.769H1441M1369.02 468.923V402.077M1369.02 468.923H1441M1369.02 402.077V335.231M1369.02 402.077H1441M1369.02 335.231V268.385M1369.02 335.231H1441M1369.02 268.385V201.539M1369.02 268.385H1441M1369.02 201.539V134.692M1369.02 201.539H1441M1369.02 134.692V67.8462M1369.02 134.692H1441M1369.02 67.8462V1.00006M1369.02 67.8462H1441" stroke="url(#paint0_linear_257_3)"/>
<defs>
<linearGradient id="paint0_linear_257_3" x1="1" y1="870" x2="1368.07" y2="-60.2962" gradientUnits="userSpaceOnUse">
<stop stop-color="white" stop-opacity="0.1"/>
<stop offset="1" stop-color="white" stop-opacity="0"/>
</linearGradient>
</defs>
</svg>
