<svg fill="none" height="928" viewBox="0 0 1440 928" width="1440" xmlns="http://www.w3.org/2000/svg" xmlns:xlink="http://www.w3.org/1999/xlink"><filter id="a" color-interpolation-filters="sRGB" filterUnits="userSpaceOnUse" height="803" width="1590" x="-282" y="-423"><feFlood flood-opacity="0" result="BackgroundImageFix"/><feBlend in="SourceGraphic" in2="BackgroundImageFix" mode="normal" result="shape"/><feGaussianBlur result="effect1_foregroundBlur_103_1703" stdDeviation="100"/></filter><filter id="b" color-interpolation-filters="sRGB" filterUnits="userSpaceOnUse" height="393.895" width="1712.71" x="-102.527" y="-195.269"><feFlood flood-opacity="0" result="BackgroundImageFix"/><feBlend in="SourceGraphic" in2="BackgroundImageFix" mode="normal" result="shape"/><feGaussianBlur result="effect1_foregroundBlur_103_1703" stdDeviation="74"/></filter><linearGradient id="c" gradientUnits="userSpaceOnUse" x1="17.3151" x2="1127.33" y1="-159.984" y2="196.712"><stop offset="0" stop-color="#ba86ff"/><stop offset="1" stop-color="#b983ff" stop-opacity=".4"/></linearGradient><linearGradient id="d" gradientUnits="userSpaceOnUse" x1="563.112" x2="1021.39" y1="15.7074" y2="169.114"><stop offset="0" stop-color="#ff00b8"/><stop offset=".48" stop-color="#7f47da"/><stop offset="1" stop-color="#5d94ff"/></linearGradient><g filter="url(#a)" opacity=".26"><path d="m626.678-32.6621c733.862 78.148 594.542 212.6621-187.064 212.6621-118.8 0-521.614-181.36435-521.614-240.7796 0-59.4154 217.389-162.2204 336.189-162.2204s372.489 130.9226 372.489 190.3379z" fill="url(#c)"/></g><g filter="url(#b)"><path d="m1434.87 43.1416c-141.92.51-829.505-61.9033-829.59-85.4518-.085-23.5484-682.3017 93.4447-540.3799 92.9347 141.9219-.51 1054.2399-118.3299 1054.3199-94.7815.09 23.5485 457.57 86.7886 315.65 87.2986z" fill="url(#d)" fill-opacity=".6"/></g></svg>